<svg id="Layer_2" data-name="Layer 2" xmlns="http://www.w3.org/2000/svg" viewBox="0 0 991.358 552.782" style="width: 100%; height: 100%;">
  <g id="Layer_2-2" data-name="Layer 2">
    <g>
      <g>
        <rect x="950.137" y="224.945" width="28.869" height="8" transform="translate(400.187 1043.981) rotate(-68.651)" fill="#60A5Fa"></rect>
        <rect x="312.242" y="147.099" width="8" height="28.869" transform="translate(-27.101 252.187) rotate(-41.848)" fill="#0cbc8b"></rect>
        <rect x="374.303" y="252.22" width="28.869" height="8.001" transform="translate(-76.002 284.203) rotate(-36.835)" fill="#60A5Fa"></rect>
        <rect x="668.905" y="44.127" width="8" height="28.87" transform="translate(169.117 508.482) rotate(-46.741)" fill="#60A5Fa"></rect>
        <rect x="494.098" y="62.701" width="28.87" height="8" transform="translate(197.253 474.327) rotate(-60.106)" fill="#0cbc8b"></rect>
        <rect x="721.516" y="266.128" width="8" height="28.869" transform="translate(-37.773 430.489) rotate(-32.254)" fill="#0cbc8b"></rect>
        <rect x="406.359" y="385.377" width="8" height="28.869" transform="translate(-135.422 225.548) rotate(-26.546)" fill="#0cbc8b"></rect>
        <rect x="288.032" y="328.136" width="28.869" height="7.999" transform="translate(-102.536 526.488) rotate(-73.312)" fill="#60A5Fa"></rect>
        <rect x="779.383" y="410.686" width="28.869" height="8" transform="translate(-96.441 512.408) rotate(-33.846)" fill="#60A5Fa"></rect>
        <rect x="789.007" y="10.508" width="28.869" height="8" transform="translate(390.446 703.829) rotate(-60.107)" fill="#0cbc8b"></rect>
        <rect x="4.98" y="205.226" width="8" height="28.869" transform="translate(-79.351 18.342) rotate(-21.349)" fill="#0cbc8b"></rect>
        <rect x="786.072" y="168.964" width="8.001" height="28.869" transform="translate(169.628 705.795) rotate(-53.165)" fill="#0cbc8b"></rect>
        <rect x="109.674" y="62.392" width="28.87" height="8" transform="translate(-11.774 103.092) rotate(-43.259)" fill="#60A5Fa"></rect>
        <rect x="364.48" y="30.096" width="8" height="28.87" transform="translate(26.834 189.577) rotate(-29.894)" fill="#60A5Fa"></rect>
        <rect x="63.111" y="354.619" width="28.869" height="8" transform="translate(-267.118 232.811) rotate(-57.746)" fill="#0cbc8b"></rect>
        <rect x="19.196" y="408.081" width="8" height="28.869" transform="translate(-340.637 206.453) rotate(-56.154)" fill="#60A5Fa"></rect>
        <rect x="938.91" y="92.411" width="8" height="28.869" transform="translate(72.195 484.14) rotate(-29.893)" fill="#60A5Fa"></rect>
      </g>
      <g>
        <g>
          <path id="sk" d="m803.433,285.056c.229-.03,2.764,42.039,51.636,38.372,33.834-2.535,45.898-38.431,46.673-38.431-3.648-.775-8.156-1.952-9.948-2.356-5.952-1.341-13.383-6.253-15.1-16.599-.99-5.963.689-36.47.172-42.503l-51.935,11.592c.726,12.742,5.805,42.283-11.997,47.511-2.962.865-6.153,1.66-9.502,2.415Z" fill="#ff9e85"></path>
          <path id="sh" d="m824.204,270.568c.736-2.348,1.173-4.39,1.562-8.061.696-6.564.325-12.599-.339-18.748,10.492-1.397,20.565-5.81,28.704-12.575.964,3.561,6.268,19.123,4.8,22.508-2.776,6.398-15.819,16.875-34.726,16.875Z" fill="#0c0c0c" opacity=".22"></path>
          <g>
            <path d="m803.368,180.424s-12.635-13.606-11.747-39.6c.688-20.126,16.535-4.193,16.535-4.193,0,0,.636-14.487,10.695-11.251,10.059,3.236,13.196,19.131,13.196,19.131" fill="#0c0c0c"></path>
            <path d="m871.858,136.505s50.191,14.575,19.378,80.622l-4.581-.501-9.3-1.017" fill="#0c0c0c"></path>
            <path d="m830.437,257.847c20.495,1.775,46.904-6.682,52.117-34.004l4.704-24.653c5.213-27.322-4.911-52.208-30.636-57.116h0c-25.725-4.908-49.179,13.572-54.392,40.893l-2.082,10.914c-.429,2.247-.962,6.323-1.175,11.373-.426,10.075-1.034,25.401,3.848,36.709,4.608,10.675,14.524,14.75,27.617,15.884Z" fill="#ff9e85"></path>
            <g>
              <g>
                <circle id="e1_eye" cx="809.83" cy="196.407" r="2.856" transform="translate(581.447 997.806) rotate(-87.726)" fill="#0a0a0a"></circle>
                <g id="e1_n">
                  <path d="m827.87,221.265c.577.023,1.09-.394,1.174-.978.091-.624-.342-1.204-.967-1.294l-6.019-.872,4.2-11.926c.209-.595-.103-1.247-.699-1.457-.595-.209-1.247.103-1.457.698l-4.661,13.237c-.113.322-.076.679.101.971s.475.49.814.539l7.395,1.071c.04.006.08.009.119.011Z" fill="#0a0a0a"></path>
                </g>
                <path id="e1_eb" d="m839.138,185.91c-.308.839,2.735,2.233,7.037,3.572s8.206,2.335,8.544,1.274c.427-1.339-2.687-4.657-6.989-5.995-4.303-1.338-8.108-.171-8.592,1.149Z" fill="#0a0a0a"></path>
                <circle id="e1_eye-2" data-name="e1_eye" cx="840.609" cy="199.466" r="2.856" transform="translate(607.948 1031.498) rotate(-87.726)" fill="#0a0a0a"></circle>
              </g>
              <path id="e1_eb-2" data-name="e1_eb" d="m804.458,185.131c.059.892,3.406.932,7.881.409,4.476-.523,8.447-1.195,8.326-2.302-.153-1.397-3.878-3.246-8.354-2.723-4.476.523-7.947,3.213-7.854,4.616Z" fill="#0a0a0a"></path>
            </g>
            <path d="m879.368,231.862c7.818,1.492,15.751-5.663,17.242-13.48,1.492-7.818-4.023-13.338-11.841-14.83l-5.028,4.47-7.095,22.558,6.721,1.282Z" fill="#ff9e85"></path>
            <path d="m876.235,218.096c-1.328-.115-2.315-1.275-2.207-2.603.702-8.58,2.322-37.496-7.306-41.305-7.542-2.984-28.49,4.745-45.471-1.73-7.429-2.833-15.067-2.226-16.455,1.274-.55,1.386-1.668-20.132,13.16-33.678,11.806-10.785,43.808-8.737,57.354-2.107,37.51,18.36,10.771,67.598,10.771,67.598l-3.549,11.196c-.343,1.081-1.389,1.78-2.519,1.682l-3.778-.327Z" fill="#0c0c0c"></path>
            <ellipse cx="834.994" cy="141.002" rx="16.038" ry="10.896" transform="translate(393.042 863.341) rotate(-68.125)" fill="#0c0c0c"></ellipse>
          </g>
        </g>
        <path d="m821.504,229.786c-.429-.028-.75.369-.653.789,1.26,5.442,6.34,8.59,12.014,7.732s9.868-5.378,9.527-10.926c-.027-.443-.479-.727-.888-.553-1.303.553-4.35,1.606-10.104,2.432-4.943.71-8.408.622-9.897.526Z" fill="#fff"></path>
        <g>
          <path d="m101.956,192.418s1.315,39.463-4.953,51.835c-18.045,35.617-21.964,62.658.746,80.714,22.709,18.056,156.637,6.771,162.835-39.806,5.218-39.213-13.466-41.767-20.666-73.122-3.258-14.187-11.409-43.822-11.409-43.822" fill="#0a0a0a"></path>
          <path id="sk-2" data-name="sk" d="m219.739,285.013c-.229-.03-2.77,42.137-51.756,38.461-33.913-2.54-46.004-38.521-46.781-38.521,3.656-.777,9.813-1.907,11.437-2.774,5.34-2.869,11.947-5.855,13.669-16.225.992-5.977-.691-36.555-.173-42.602l52.056,11.619c-.727,12.772-5.818,42.381,12.025,47.621,2.969.867,6.167,1.664,9.524,2.421Z" fill="#ff9e85"></path>
          <path id="sh-2" data-name="sh" d="m198.92,270.491c-.737-2.354-1.176-4.4-1.566-8.079-.697-6.58-.326-12.628.34-18.791-10.516-1.4-20.612-5.823-28.771-12.605-.967,3.57-6.283,19.168-4.811,22.561,2.782,6.413,15.856,16.915,34.807,16.915Z" fill="#0c0c0c" opacity=".22"></path>
          <path d="m192.128,255.938c-20.541,3.799-40.595-2.629-48.529-29.735l-11.624-24.008c-7.934-27.106-.129-53.248,25.393-60.718h0c25.522-7.47,47.252-.921,55.186,26.185,0,0,4.775,15.486,5.796,20.782,3.85,19.973,4.943,61.73-26.224,67.494Z" fill="#ff9e85"></path>
          <path d="m198.186,225.919c.434-.079.807.288.757.727-.645,5.69-5.449,9.491-11.328,9.283s-10.679-4.32-10.983-10.009c-.024-.454.403-.796.839-.668,1.391.41,4.618,1.125,10.575,1.292,5.117.143,8.635-.352,10.14-.625Z" fill="#fff"></path>
          <path id="e1_eb-3" data-name="e1_eb" d="m213.51,184.771c-.008.905-3.389,1.142-7.946.877-4.557-.266-8.612-.713-8.555-1.839.072-1.422,3.844-2.359,8.4-2.093,4.557.266,8.112,1.631,8.1,3.055Z" fill="#0a0a0a"></path>
          <path d="m112.024,212.918l30.07,5.208c16.954-8.874,12.12-51.727,12.12-51.727,0,0,23.493,18.799,74.296,1.818,0,0-17.298-69.15-92.007-40.551-24.09,9.222-39.186,38.213-33.705,71.337,3.841,23.213,9.226,13.915,9.226,13.915Z" fill="#0a0a0a"></path>
          <path d="m143.137,234.447c-7.756,2.27-16.168.259-19.554-11.425-2.249-7.762,3.577-14.392,11.333-16.662l5.518,4.027,9.372,22.108-6.668,1.952Z" fill="#ff9e85"></path>
          <g>
            <circle id="e1_eye-3" data-name="e1_eye" cx="200.971" cy="194.58" r="2.892" transform="translate(-18.023 20.533) rotate(-5.598)" fill="#0a0a0a"></circle>
            <g id="e1_n-2" data-name="e1_n">
              <path d="m188.549,218.447c-.583.057-1.125-.334-1.245-.92-.128-.626.275-1.238.902-1.366l6.036-1.235-4.948-11.813c-.246-.59.031-1.267.621-1.514.589-.246,1.267.031,1.514.62l5.49,13.112c.133.319.117.682-.045.988s-.452.523-.791.593l-7.415,1.518c-.04.008-.08.014-.12.018Z" fill="#0a0a0a"></path>
            </g>
            <path id="e1_eb-4" data-name="e1_eb" d="m178.486,186.611c.36.831-2.634,2.419-6.907,4.025-4.272,1.606-8.161,2.843-8.565,1.79-.511-1.329,2.556-3.715,6.829-5.321,4.272-1.606,8.076-1.8,8.643-.494Z" fill="#0a0a0a"></path>
            <circle id="e1_eye-4" data-name="e1_eye" cx="172.282" cy="199.245" r="2.893" transform="translate(-18.615 17.756) rotate(-5.598)" fill="#0a0a0a"></circle>
          </g>
          <path d="m123.714,201.94l.716,11.019c1.839-2.713,4.681-4.752,8.137-5.511.858-.2,1.722-.274,2.571-.286,5.659,3.646,2.673,11.611,6.956,10.963,2.433-.368,7.441-6.686,8.427-10.398.625-2.353-6.338-10.463-6.545-12.889" fill="#0a0a0a"></path>
        </g>
        <rect x="617.522" y="169.962" width="28.869" height="8" transform="translate(80.756 528.658) rotate(-48.152)" fill="#60A5Fa"></rect>
        <rect x="452.22" y="413.642" width="28.869" height="8" transform="translate(-115.515 648.446) rotate(-63.454)" fill="#0cbc8b"></rect>
        <rect x="570.547" y="335.531" width="7.999" height="28.869" transform="translate(-76.297 179.725) rotate(-16.688)" fill="#60A5Fa"></rect>
        <g>
          <path d="m576.813,350.77l-27.267-20.727c-2.51-1.908-6.149-1.292-7.87,1.434-1.526,2.416-.74,5.635,1.535,7.365l5.847,4.444-24.802-5.537c-2.747-.664-6.542.279-7.083,3.409-.604,2.502.637,5.013,2.845,6.116-.009.026-.027.048-.031.076-.005.021,0,.042-.001.063l-4.236-1.023c-3.267-.789-6.557,1.563-6.694,5.114-.101,2.601,1.814,4.857,4.344,5.468l1.803.436c.012.058.033.113.064.163-2.58-.024-4.92,1.804-5.388,4.499-.497,2.857,1.502,5.565,4.32,6.246l4.477,1.082c-.144.06-.261.179-.302.344-.021.097-.005.19.027.277-2.22.599-3.978,2.584-4.02,5.208-.041,2.553,1.865,4.733,4.348,5.333l37.774,9.126c10.81,2.612,22.124-1.597,28.599-10.639h0c5.675-7.924,4.016-18.925-3.744-24.824l-4.544-3.454Z" fill="#ff9e85"></path>
          <g fill="none" opacity=".2">
            <path d="m544.54,352.877c-.066.263-.329.427-.595.367l-23.58-5.295c-.269-.061-.439-.328-.378-.598.037-.258.328-.439.598-.378l23.58,5.295c.269.061.439.328.378.598l-.003.011Z" fill="#0c0c0c"></path>
          </g>
          <g fill="none" opacity=".2">
            <path d="m542.491,363.341c-.066.263-.329.427-.595.367l-26.315-5.91c-.269-.061-.439-.328-.378-.598.057-.246.328-.438.598-.378l26.315,5.91c.269.061.439.328.378.598l-.003.011Z" fill="#0c0c0c"></path>
          </g>
          <g fill="none" opacity=".2">
            <path d="m540.338,374.687c-.066.263-.329.427-.595.367l-20.991-4.714c-.269-.061-.439-.328-.378-.598.067-.271.328-.438.598-.378l20.991,4.714c.269.061.439.328.378.598l-.003.011Z" fill="#0c0c0c"></path>
          </g>
        </g>
        <g>
          <path d="m447.36,208.206l15.224-30.681c1.402-2.824,4.936-3.888,7.688-2.211,2.441,1.487,3.166,4.72,1.896,7.28l-3.265,6.579,19.762-15.977c2.166-1.814,5.985-2.656,7.86-.092,1.653,1.973,1.656,4.774.167,6.743.02.019.045.031.061.054.014.017.018.038.029.056l3.34-2.798c2.576-2.158,6.569-1.512,8.269,1.609,1.245,2.285.532,5.157-1.463,6.829l-1.422,1.191c.015.057.021.116.015.175,2.301-1.168,5.209-.569,6.826,1.637,1.714,2.339,1.126,5.653-1.096,7.515l-3.531,2.958c.156-.01.313.044.424.174.062.077.089.168.099.26,2.255-.449,4.712.548,5.915,2.881,1.171,2.27.431,5.07-1.527,6.709l-29.79,24.954c-8.525,7.141-20.531,8.396-30.349,3.171h0c-8.604-4.579-12.004-15.172-7.672-23.903l2.537-5.113Z" fill="#ff9e85"></path>
          <g fill="none" opacity=".2">
            <path d="m477.211,195.758c.176.206.485.236.696.064l18.774-15.218c.214-.174.247-.489.073-.703-.147-.215-.489-.247-.703-.073l-18.774,15.218c-.214.174-.247.489-.073.703l.008.009Z" fill="#0c0c0c"></path>
          </g>
          <g fill="none" opacity=".2">
            <path d="m483.694,204.224c.176.206.485.236.696.064l20.952-16.983c.214-.174.247-.489.073-.703-.16-.195-.489-.247-.703-.073l-20.952,16.983c-.214.174-.247.489-.073.703l.008.009Z" fill="#0c0c0c"></path>
          </g>
          <g fill="none" opacity=".2">
            <path d="m490.663,213.432c.176.206.485.236.696.064l16.713-13.547c.214-.174.247-.489.073-.703-.18-.213-.489-.247-.703-.073l-16.713,13.547c-.214.174-.247.489-.073.703l.008.009Z" fill="#0c0c0c"></path>
          </g>
        </g>
        <path d="m260.143,290.012l147.927,49.447-43.431,19.305,73.756-151.319,60.283,28.094-68.437,153.798c-7.251,16.295-25.285,24.424-41.961,19.723l-1.471-.418-150.167-42.16,23.5-76.47Z" fill="#60A5Fa"></path>
        <path id="b_1_b" d="m167.152,313.021c-34.092-1.607-35.527-30.544-35.527-30.544,0,0-16.892,1.092-28.121,2.611-18.384,2.487-30.512,8.721-40.163,18.372-8.978,8.978-14.444,18.692-8.66,80.711,4.188,44.906,1.24,143.679,1.24,143.679h207.75s14.507-142.697,16.227-162.911c3.283-38.589,12.555-47.108-6.232-66.986-13.625-14.416-48.797-15.476-62.958-15.474-.231,0,2.873,32.73-43.555,30.541Z" fill="#60A5Fa"></path>
        <path d="m279.436,378.996c-.021,0-.041,0-.062-.004-.273-.033-.469-.283-.435-.558l3.217-26.077c.033-.274.272-.473.558-.435.273.033.469.283.435.558l-3.217,26.077c-.031.253-.247.438-.495.438Z" fill="#0c0c0c"></path>
        <path id="b_1_b-2" data-name="b_1_b" d="m856.326,313.021c34.092-1.607,35.527-30.544,35.527-30.544,0,0,16.892,1.092,28.121,2.611,18.384,2.487,30.512,8.721,40.163,18.372,8.978,8.978,14.444,18.692,8.66,80.711-4.188,44.906-1.24,143.679-1.24,143.679h-207.75s-14.507-142.697-16.227-162.911c-3.283-38.589-12.555-47.108,6.232-66.986,13.625-14.416,48.797-15.476,62.958-15.474.231,0-2.873,32.73,43.555,30.541Z" fill="#60A5Fa"></path>
        <path d="m743.089,306.891l-53.714,113.872-105.925-79.656-42.072,55.946,140.261,105.476c1.188.88,2.603,1.818,3.927,2.56,16.854,9.443,38.173,3.435,47.616-13.42l.607-1.084,81.948-146.268-72.648-37.427Z" fill="#60A5Fa"></path>
        <path d="m975.528,528.851H29.445c-.552,0-1-.448-1-1s.448-1,1-1h946.082c.552,0,1,.448,1,1s-.448,1-1,1Z" fill="#292a2e"></path>
        <g>
          <rect x="263.129" y="379.11" width="506.619" height="173.171" fill="#fff"></rect>
          <path d="m770.247,552.782h-507.618v-174.171h507.618v174.171Zm-506.618-1h505.618v-172.171h-505.618v172.171Z" fill="#0c0c0c"></path>
        </g>
        <g>
          <path d="m238.113,432.034l31.273-13.967c2.879-1.286,6.282.144,7.337,3.19.935,2.701-.563,5.656-3.173,6.821l-6.706,2.995,25.411.261c2.826-.02,6.306,1.762,6.12,4.934.018,2.574-1.762,4.736-4.164,5.307.003.027.015.053.012.081,0,.022-.01.04-.013.061l4.358-.031c3.36-.024,6.028,3.016,5.352,6.505-.495,2.555-2.873,4.315-5.476,4.334l-1.854.013c-.025.054-.058.103-.1.144,2.518.564,4.379,2.878,4.221,5.608-.167,2.895-2.73,5.076-5.63,5.097l-4.606.033c.127.091.214.233.216.404-.001.099-.038.186-.089.264,2.025,1.089,3.284,3.423,2.727,5.987-.542,2.496-2.895,4.184-5.449,4.202l-38.86.277c-11.121.079-21.178-6.597-25.422-16.877h0c-3.72-9.009.403-19.343,9.303-23.317l5.211-2.327Z" fill="#ff9e85"></path>
          <g fill="none" opacity=".2">
            <path d="m269.057,441.441c.004.271.224.49.496.493l24.166.218c.276.002.502-.219.504-.496.023-.259-.22-.502-.496-.504l-24.166-.218c-.276-.002-.502.219-.504.496v.012Z" fill="#0c0c0c"></path>
          </g>
          <g fill="none" opacity=".2">
            <path d="m268.667,452.096c.004.271.224.49.496.493l26.969.243c.276.002.502-.219.504-.496,0-.252-.22-.502-.496-.504l-26.969-.243c-.276-.002-.502.219-.504.496v.012Z" fill="#0c0c0c"></path>
          </g>
          <g fill="none" opacity=".2">
            <path d="m268.178,463.634c.004.271.224.49.496.493l21.513.194c.276.002.502-.219.504-.496-.003-.279-.22-.502-.496-.504l-21.513-.194c-.276-.002-.502.219-.504.496v.012Z" fill="#0c0c0c"></path>
          </g>
        </g>
        <path id="b_4_b" d="m247.064,487.717l-173.387,39.415c-1.356.147-2.712.22-4.061.22-10.264,0-20.15-4.216-27.274-11.767-8.061-8.545-11.652-20.372-9.703-31.955l19.842-159.603c3.437-20.423,22.775-34.19,43.202-30.759,20.423,3.436,34.195,22.778,30.759,43.202l-9.555,114.235,120.464-27.261,9.714,64.273Z" fill="#60A5Fa"></path>
        <g id="b_4_st">
          <path d="m92.51,455.197c-.244,0-.457-.178-.494-.426-.041-.273.147-.527.42-.568l24.161-5.159c.283-.043.528.147.569.42.041.273-.147.527-.42.568l-24.161,5.159c-.025.004-.05.006-.075.006Z" fill="#0c0c0c"></path>
        </g>
        <g id="b_4_st-2" data-name="b_4_st">
          <path d="m78.879,527.851c-.248,0-.462-.184-.495-.436-.036-.273.157-.524.431-.561l167.161-39.371-9.471-63.301-119.745,25.851c-.158.019-.315-.035-.425-.148-.11-.114-.16-.274-.134-.431l6.716-65.27c.045-.272.298-.461.576-.41.272.046.456.304.41.576l-6.604,64.602,119.434-25.87c.13-.037.269-.017.385.051s.2.18.233.311l9.714,64.273c.066.263-.091.532-.353.604l-167.767,39.527c-.022.003-.044.004-.065.004Z" fill="#0c0c0c"></path>
        </g>
        <g>
          <path d="m785.364,462.034l-31.273-13.967c-2.879-1.286-6.282.144-7.337,3.19-.935,2.701.563,5.656,3.173,6.821l6.706,2.995-25.411.261c-2.826-.02-6.306,1.762-6.12,4.934-.018,2.574,1.762,4.736,4.164,5.307-.003.027-.015.053-.012.081,0,.022.01.04.013.061l-4.358-.031c-3.36-.024-6.028,3.016-5.352,6.505.495,2.555,2.873,4.315,5.476,4.334l1.854.013c.025.054.058.103.1.144-2.518.564-4.379,2.878-4.221,5.608.167,2.895,2.73,5.076,5.63,5.097l4.606.033c-.127.091-.214.233-.216.404.001.099.038.186.089.264-2.025,1.089-3.284,3.423-2.727,5.987.542,2.496,2.895,4.184,5.449,4.202l38.86.277c11.121.079,21.178-6.597,25.422-16.877h0c3.72-9.009-.403-19.343-9.303-23.317l-5.211-2.327Z" fill="#ff9e85"></path>
          <g fill="none" opacity=".2">
            <path d="m754.42,471.441c-.004.271-.224.49-.496.493l-24.166.218c-.276.002-.502-.219-.504-.496-.023-.259.22-.502.496-.504l24.166-.218c.276-.002.502.219.504.496v.012Z" fill="#0c0c0c"></path>
          </g>
          <g fill="none" opacity=".2">
            <path d="m754.81,482.096c-.004.271-.224.49-.496.493l-26.969.243c-.276.002-.502-.219-.504-.496,0-.252.22-.502.496-.504l26.969-.243c.276-.002.502.219.504.496v.012Z" fill="#0c0c0c"></path>
          </g>
          <g fill="none" opacity=".2">
            <path d="m755.299,493.634c-.004.271-.224.49-.496.493l-21.513.194c-.276.002-.502-.219-.504-.496.003-.279.22-.502.496-.504l21.513-.194c.276-.002.502.219.504.496v.012Z" fill="#0c0c0c"></path>
          </g>
        </g>
        <path id="b_4_b-2" data-name="b_4_b" d="m786.413,517.717l163.387,9.415c1.356.147,2.712.22,4.061.22,10.264,0,20.15-4.216,27.274-11.767,8.061-8.545,11.652-20.372,9.703-31.955l-19.842-159.603c-3.437-20.423-22.775-34.19-43.202-30.759-20.423,3.436-34.195,22.778-30.759,43.202l9.555,121.235-119.464-4.261-.714,64.273Z" fill="#60A5Fa"></path>
        <g id="b_4_st-3" data-name="b_4_st">
          <path d="m930.967,457.197c.244,0,.457-.178.494-.426.041-.273-.147-.527-.42-.568l-24.161-.159c-.283-.043-.528.147-.569.42-.041.273.147.527.42.568l24.161.159c.025.004.05.006.075.006Z" fill="#0c0c0c"></path>
        </g>
        <g id="b_4_st-4" data-name="b_4_st">
          <path d="m944.599,527.851c.248,0,.462-.184.495-.436.036-.273-.157-.524-.431-.561l-157.161-9.371.471-63.301,118.745,2.851c.158.019.315-.035.425-.148.11-.114.16-.274.134-.431l-6.716-72.27c-.045-.272-.298-.461-.576-.41-.272.046-.456.304-.41.576l6.604,71.602-118.434-2.87c-.13-.037-.269-.017-.385.051s-.2.18-.233.311l-.714,64.273c-.066.263.091.532.353.604l157.767,9.527c.022.003.044.004.065.004Z" fill="#0c0c0c"></path>
        </g>
        <g>
          <path d="m383.238,492.416h-13.28l-7.449-28.894c-.276-1.028-.746-3.153-1.41-6.376-.665-3.223-1.048-5.386-1.147-6.49-.15,1.354-.527,3.53-1.129,6.527s-1.066,5.135-1.392,6.415l-7.412,28.818h-13.242l-14.033-55.002h11.475l7.035,30.022c1.229,5.543,2.119,10.346,2.671,14.409.15-1.43.495-3.643,1.035-6.64.539-2.997,1.047-5.323,1.523-6.979l8.014-30.812h11.022l8.014,30.812c.351,1.379.79,3.486,1.316,6.32.527,2.834.928,5.267,1.204,7.298.251-1.956.652-4.395,1.204-7.317.551-2.921,1.054-5.286,1.505-7.091l6.997-30.022h11.475l-13.995,55.002Z" fill="#0cbc8b"></path>
          <path d="m435.833,492.416h-31.678v-55.002h31.678v9.556h-20.015v12.077h18.623v9.556h-18.623v14.184h20.015v9.631Z" fill="#0cbc8b"></path>
          <path d="m447.307,492.416v-55.002h11.663v45.372h22.31v9.631h-33.973Z" fill="#0cbc8b"></path>
          <path d="m514.198,446.329c-4.39,0-7.787,1.649-10.195,4.947-2.408,3.298-3.611,7.895-3.611,13.789,0,12.264,4.602,18.396,13.807,18.396,3.862,0,8.54-.965,14.033-2.896v9.781c-4.515,1.881-9.556,2.822-15.124,2.822-8.001,0-14.121-2.427-18.359-7.28-4.239-4.853-6.358-11.819-6.358-20.899,0-5.718,1.041-10.728,3.123-15.03,2.081-4.301,5.072-7.599,8.973-9.894,3.899-2.295,8.471-3.442,13.713-3.442,5.343,0,10.709,1.292,16.103,3.875l-3.763,9.48c-2.057-.978-4.126-1.831-6.207-2.558-2.082-.728-4.126-1.091-6.133-1.091Z" fill="#0cbc8b"></path>
          <path d="m589.855,464.839c0,9.104-2.257,16.102-6.771,20.993-4.515,4.891-10.985,7.336-19.413,7.336s-14.897-2.445-19.412-7.336c-4.515-4.891-6.772-11.913-6.772-21.068s2.264-16.146,6.791-20.974c4.527-4.828,11.017-7.242,19.469-7.242s14.917,2.433,19.395,7.299c4.477,4.866,6.715,11.864,6.715,20.993Zm-40.142,0c0,6.146,1.166,10.773,3.499,13.882,2.332,3.11,5.818,4.665,10.458,4.665,9.306,0,13.958-6.182,13.958-18.547s-4.628-18.585-13.883-18.585c-4.64,0-8.139,1.562-10.496,4.684s-3.536,7.756-3.536,13.901Z" fill="#0cbc8b"></path>
          <path d="m624.542,492.416l-13.242-43.152h-.339c.476,8.779.715,14.635.715,17.569v25.583h-10.422v-55.002h15.877l13.017,42.061h.226l13.808-42.061h15.876v55.002h-10.872v-26.034c0-1.229.019-2.646.056-4.251.038-1.605.207-5.869.508-12.792h-.338l-14.184,43.077h-10.685Z" fill="#0cbc8b"></path>
          <path d="m705.579,492.416h-31.678v-55.002h31.678v9.556h-20.015v12.077h18.623v9.556h-18.623v14.184h20.015v9.631Z" fill="#0cbc8b"></path>
        </g>
      </g>
    </g>
  </g>
</svg>