<svg xmlns="http://www.w3.org/2000/svg" viewBox="0 0 500 500"><g id="freepik--Device--inject-5"><g id="freepik--Laptop--inject-5"><path d="M62.88,357.26c0,3.49,2.6,7.82,5.82,9.68l126.85,73.25a12.88,12.88,0,0,0,11.66,0l223.37-129c3.22-1.85,5.83-6.19,5.83-9.67s-2.61-7.82-5.83-9.68L303.73,218.62a12.86,12.86,0,0,0-11.65,0L68.7,347.58C65.48,349.44,62.87,353.77,62.88,357.26Z" style="fill:#37474f"></path><path d="M68.7,354.31l126.85,73.26a12.94,12.94,0,0,0,11.66,0l223.37-129c3.22-1.86,3.22-4.87,0-6.73L303.73,218.62a12.86,12.86,0,0,0-11.65,0L68.7,347.58C65.48,349.44,65.48,352.45,68.7,354.31Z" style="fill:#455a64"></path><path d="M201.38,429v12.61a11.84,11.84,0,0,1-5.82-1.39L68.7,366.94c-3.22-1.86-5.83-6.19-5.83-9.68,0-3.27,2.3-7.28,5.24-9.3-2.61,1.87-2.41,4.62.59,6.35l126.86,73.26A11.85,11.85,0,0,0,201.38,429Z" style="fill:#263238"></path><path d="M57.41,347.79c-3-1.74-2.85-4.68-2.85-8.4V164.18a12.89,12.89,0,0,1,5.83-10.1l223.37-129c3.22-1.86,8.28-1.95,11.3-.21s2.85,4.69,2.85,8.4V208.53a12.9,12.9,0,0,1-5.82,10.09L68.7,347.58C65.48,349.44,60.43,349.54,57.41,347.79Z" style="fill:#37474f"></path><path d="M297.9,33.31c0-3.71-2.61-5.21-5.82-3.37L68.7,158.92a11.85,11.85,0,0,0-4.12,4.35l-8.31-4.83h0a11.88,11.88,0,0,1,4.12-4.36l223.37-129C287,23.26,292,23.17,295,24.91S297.9,29.6,297.9,33.31Z" style="fill:#455a64"></path><path d="M68,347.94c-3.21,1.5-7.79,1.48-10.6-.15-3-1.74-2.85-4.68-2.85-8.4V164.17a11.68,11.68,0,0,1,1.71-5.73l8.31,4.81v0A11.92,11.92,0,0,0,62.87,169V344.22C62.87,347.67,65.12,349.21,68,347.94Z" style="fill:#263238"></path><path d="M71.84,165.63,287.2,41.33c1.93-1.12,3.49-.21,3.49,2v158a7.71,7.71,0,0,1-3.49,6L71.84,331.66c-1.94,1.11-3.5.21-3.5-2V171.69A7.72,7.72,0,0,1,71.84,165.63Z" style="fill:#60A5FA"></path><path d="M71.84,165.63,287.2,41.33c1.93-1.12,3.49-.21,3.49,2v158a7.71,7.71,0,0,1-3.49,6L71.84,331.66c-1.94,1.11-3.5.21-3.5-2V171.69A7.72,7.72,0,0,1,71.84,165.63Z" style="opacity:0.30000000000000004"></path><path d="M84.82,347.93,292.16,228.22a6.44,6.44,0,0,1,5.83,0l3.45,1.9c1.61.93,1.61,2.43,0,3.36L94.07,353.17a6.42,6.42,0,0,1-5.82,0l-3.42-1.88C83.22,350.36,83.22,348.86,84.82,347.93Z" style="fill:#263238"></path><path d="M101.09,357.6,308.42,237.89a6,6,0,0,1,5.33-.29l54,31.16c1.33.77,1.1,2.15-.51,3.07L160.12,391.38a6,6,0,0,1-5.33.3l-54.2-31C99.26,359.9,99.48,358.53,101.09,357.6Z" style="fill:#263238"></path><path d="M280.75,288.17l6.49-3.75c.28-.16.3-.4.06-.54l-6.22-3.59a1.07,1.07,0,0,0-.94,0l-6.49,3.75c-.28.16-.3.41-.06.55l6.21,3.58A1.06,1.06,0,0,0,280.75,288.17Zm-9.48-13L264.78,279c-.28.16-.3.4-.06.54l6.21,3.59a1.06,1.06,0,0,0,.95,0l6.49-3.75c.27-.16.3-.4.05-.54l-6.21-3.59A1,1,0,0,0,271.27,275.2Zm-21,12.11-11,6.34c-.28.16-.3.41-.06.55l6.22,3.58a1,1,0,0,0,.94,0l11-6.34c.28-.16.3-.4.06-.55l-6.21-3.58A1,1,0,0,0,250.3,287.31Zm11.48-6.63-6.49,3.75c-.28.16-.3.4-.06.54l6.21,3.59a1.06,1.06,0,0,0,.95,0l6.49-3.75c.28-.16.3-.4.06-.55l-6.22-3.58A1,1,0,0,0,261.78,280.68Zm-25.47,14.7-6.49,3.75c-.27.16-.3.4,0,.55l6.21,3.58a1,1,0,0,0,.94,0l6.49-3.75c.28-.16.3-.4.06-.54l-6.21-3.59A1.06,1.06,0,0,0,236.31,295.38Zm-9.48,5.48-6.5,3.75c-.27.16-.3.4-.05.54l6.21,3.59a1,1,0,0,0,.94,0l6.49-3.75c.28-.16.3-.4.06-.54l-6.21-3.59A1,1,0,0,0,226.83,300.86Zm24.34,14.63,6.49-3.75c.28-.15.3-.4.06-.54l-6.21-3.59a1.06,1.06,0,0,0-.95,0l-6.49,3.74c-.27.16-.3.41,0,.55l6.21,3.59A1,1,0,0,0,251.17,315.49ZM241.68,321l6.49-3.75c.28-.16.3-.4.06-.54L242,313.09a1.07,1.07,0,0,0-.94,0l-6.5,3.75c-.27.16-.3.41-.05.55l6.21,3.58A1,1,0,0,0,241.68,321Zm-9.49,5.48,6.49-3.75c.28-.16.31-.4.06-.54l-6.21-3.59a1,1,0,0,0-.94,0l-6.49,3.75c-.28.16-.31.4-.06.55l6.21,3.58A1,1,0,0,0,232.19,326.45Zm-9.48,5.48,6.49-3.75c.27-.16.3-.4.05-.55L223,324.05a1,1,0,0,0-.94,0l-6.49,3.75c-.28.16-.3.4-.06.54l6.21,3.59A1.06,1.06,0,0,0,222.71,331.93Zm48.55-38.28,6.49-3.75c.28-.16.3-.4.06-.54l-6.21-3.59a1.06,1.06,0,0,0-1,0l-6.49,3.75c-.27.16-.3.4-.05.55l6.21,3.58A1,1,0,0,0,271.26,293.65ZM260.66,310l14.48-8.37c.27-.16.3-.4.05-.54l-15.08-8.71a1,1,0,0,0-.94,0l-7.49,4.33c-.28.16-.3.4-.06.54l8,4.61c.24.14.22.39-.06.55l-6,3.46c-.28.16-.3.4-.06.54l6.21,3.59A1.1,1.1,0,0,0,260.66,310Zm-43.32-3.68-6.49,3.75c-.28.16-.3.4-.06.54l6.21,3.59a1.07,1.07,0,0,0,.94,0l6.5-3.75c.27-.16.3-.41.05-.55l-6.21-3.58A1,1,0,0,0,217.34,306.34Zm-9.49,5.48-6.49,3.75c-.28.15-.3.4-.06.54l6.21,3.59a1.06,1.06,0,0,0,1,0l6.49-3.74c.27-.16.3-.41.05-.55l-6.21-3.58A1,1,0,0,0,207.85,311.82Zm-52.5,58.48a1,1,0,0,0,.94,0l6.49-3.75c.28-.16.3-.4.06-.54l-6.21-3.59a1.06,1.06,0,0,0-.95,0l-6.49,3.74c-.27.16-.3.41-.05.55ZM132,355.64l-6.5,3.75c-.27.16-.3.4,0,.54l6.21,3.59a1,1,0,0,0,.94,0l6.49-3.75c.28-.16.3-.4.06-.55l-6.21-3.58A1,1,0,0,0,132,355.64Zm12,11a1,1,0,0,0,.94,0l6.49-3.75c.28-.16.3-.4.06-.54l-6.21-3.59a1.1,1.1,0,0,0-.95,0l-6.49,3.75c-.27.16-.3.41,0,.55Zm26.18,5.89,6.49-3.75c.27-.16.3-.4,0-.54l-6.21-3.59a1,1,0,0,0-.94,0l-6.49,3.74c-.28.16-.3.41-.06.55l6.21,3.58A1.06,1.06,0,0,0,170.16,372.51ZM159.72,378a1.06,1.06,0,0,0,.95,0l6.49-3.75c.27-.16.3-.4.06-.54L161,370.11a1,1,0,0,0-.94,0l-6.49,3.75c-.28.16-.3.4-.06.55Zm-18.29-27.86-6.49,3.75c-.27.16-.3.4-.05.55L141.1,358a1,1,0,0,0,.94,0l6.49-3.75c.28-.16.3-.4.06-.54l-6.21-3.59A1.06,1.06,0,0,0,141.43,350.16Zm47.44-27.39-6.49,3.75c-.27.16-.3.4,0,.55l6.21,3.58a1,1,0,0,0,.94,0l6.49-3.75c.28-.16.3-.4.06-.54l-6.21-3.59A1.06,1.06,0,0,0,188.87,322.77Zm-38,21.92-6.49,3.74c-.28.16-.3.41-.06.55l6.22,3.58a1,1,0,0,0,.94,0l6.49-3.75c.28-.16.3-.4.06-.54l-6.21-3.59A1.06,1.06,0,0,0,150.92,344.69Zm47.44-27.39L191.87,321c-.28.16-.3.41-.06.55l6.21,3.58a1,1,0,0,0,.95,0l6.49-3.75c.28-.16.3-.4.06-.54l-6.21-3.59A1.06,1.06,0,0,0,198.36,317.3Zm-19,10.95-6.5,3.75c-.27.16-.3.4,0,.54l6.21,3.59a1,1,0,0,0,.94,0l6.49-3.75c.28-.16.31-.4.06-.55l-6.21-3.58A1,1,0,0,0,179.39,328.25Zm-9.49,5.48-6.49,3.75c-.28.16-.3.4-.06.54l6.21,3.59a1,1,0,0,0,.94,0l6.5-3.74c.27-.16.3-.41.05-.55l-6.21-3.58A1,1,0,0,0,169.9,333.73Zm-9.49,5.48L153.92,343c-.28.16-.3.41-.06.55l6.21,3.59a1.06,1.06,0,0,0,1,0l6.49-3.75c.27-.15.3-.4.05-.54l-6.21-3.59A1,1,0,0,0,160.41,339.21Zm43.32,3.67,6.49-3.75c.28-.15.3-.4.06-.54L204.07,335a1.06,1.06,0,0,0-.95,0l-6.49,3.74c-.27.16-.3.41,0,.55l6.21,3.58A1,1,0,0,0,203.73,342.88Zm88.51-79.79-6.49,3.75c-.27.16-.3.4-.05.55l6.21,3.58a1,1,0,0,0,.94,0l6.49-3.75c.28-.16.3-.4.06-.54l-6.21-3.59A1.06,1.06,0,0,0,292.24,263.09Zm-11.48,6.63-6.49,3.75c-.28.16-.3.41-.06.55l6.21,3.58a1,1,0,0,0,.94,0l6.5-3.75c.27-.16.3-.4.05-.54l-6.21-3.59A1.07,1.07,0,0,0,280.76,269.72Zm21-12.1-6.49,3.74c-.28.16-.3.41-.06.55l6.21,3.58a1.06,1.06,0,0,0,.95,0l6.49-3.75c.27-.16.3-.4.05-.54l-6.21-3.59A1,1,0,0,0,301.73,257.62Zm-52.44,48.71,6.49-3.74c.28-.16.3-.41.06-.55l-6.21-3.58a1,1,0,0,0-.95,0l-6.49,3.75c-.28.16-.3.4-.06.54l6.21,3.59A1.06,1.06,0,0,0,249.29,306.33Zm62.87-54.22a1,1,0,0,0-.94,0l-6.49,3.75c-.28.15-.3.4-.06.54l6.21,3.59a1,1,0,0,0,.94,0l6.5-3.74c.27-.16.3-.41.05-.55ZM213.22,337.4l6.49-3.74c.27-.16.3-.41,0-.55l-6.21-3.58a1,1,0,0,0-.94,0l-6.49,3.75c-.28.16-.3.4-.06.54l6.21,3.59A1.06,1.06,0,0,0,213.22,337.4Zm116.35-67.17,6.49-3.75c.28-.16.3-.4.06-.54l-6.21-3.59a1.06,1.06,0,0,0-1,0l-6.49,3.75c-.27.16-.3.4-.05.55l6.21,3.58A1,1,0,0,0,329.57,270.23Zm-18.36.35,6.49-3.74c.28-.16.3-.41.06-.55l-6.21-3.58a1,1,0,0,0-.95,0l-6.49,3.75c-.27.16-.3.4-.05.54l6.21,3.59A1,1,0,0,0,311.21,270.58ZM321,257.23a1,1,0,0,0-.94,0L313.6,261c-.28.16-.3.4-.06.54l6.21,3.59a1.1,1.1,0,0,0,.95,0l6.49-3.75c.27-.16.3-.41.05-.55Zm2-1.16,15.08,8.71a1.06,1.06,0,0,0,.95,0l6.49-3.75c.28-.16.3-.4.06-.54l-15.09-8.71a1,1,0,0,0-.94,0l-6.49,3.75C322.81,255.69,322.79,255.93,323,256.07Zm-21.91,12.15-6.5,3.74c-.27.16-.3.41-.05.55l6.21,3.58a1,1,0,0,0,.94,0l6.49-3.75c.28-.16.3-.4.06-.54l-6.21-3.59A1,1,0,0,0,301.12,268.22Zm-71.41,41.22-6.5,3.75c-.27.16-.3.41-.05.55l6.21,3.58a1,1,0,0,0,.94,0l6.49-3.75c.28-.16.3-.4.06-.54l-6.21-3.59A1,1,0,0,0,229.71,309.44Zm89.43-33.7a1,1,0,0,0,.94,0l6.49-3.75c.28-.16.3-.4.06-.55l-6.21-3.58a1,1,0,0,0-.94,0l-6.5,3.75c-.27.16-.3.4-.05.54ZM239.19,304l-6.49,3.74c-.27.16-.3.41,0,.55l6.21,3.58a1,1,0,0,0,.94,0l6.49-3.75c.28-.16.3-.4.06-.54l-6.21-3.59A1.06,1.06,0,0,0,239.19,304Zm-74.36,60.86a1.06,1.06,0,0,0,.95,0l6.49-3.74c.27-.16.3-.41,0-.55l-6.21-3.58a1,1,0,0,0-.94,0l-6.49,3.75c-.28.16-.3.4-.06.54Zm-11-11.56L147.31,357c-.28.15-.3.4-.06.54l6.22,3.59a1,1,0,0,0,.94,0l6.49-3.74c.28-.16.3-.41.06-.55l-6.21-3.59A1.06,1.06,0,0,0,153.8,353.27Zm21.47,6.05,6.49-3.75c.27-.16.3-.41.05-.55l-6.21-3.58a1,1,0,0,0-.94,0l-6.49,3.75c-.28.16-.3.4-.06.54l6.21,3.59A1.06,1.06,0,0,0,175.27,359.32Zm9.48-5.48,6.49-3.75c.28-.16.31-.4.06-.54L185.09,346a1,1,0,0,0-.94,0l-6.49,3.75c-.28.16-.31.4-.06.54l6.21,3.59A1,1,0,0,0,184.75,353.84Zm9.49-5.48,6.49-3.75c.28-.16.3-.4.06-.54l-6.21-3.59a1.06,1.06,0,0,0-1,0l-6.49,3.75c-.27.16-.3.41,0,.55l6.21,3.58A1,1,0,0,0,194.24,348.36Zm-31-.57-6.49,3.75c-.28.16-.3.4-.06.54l6.21,3.59a1.06,1.06,0,0,0,1,0l6.49-3.74c.27-.16.3-.41.05-.55l-6.21-3.58A1,1,0,0,0,163.29,347.79Zm9.49-5.48-6.49,3.75c-.28.16-.3.4-.06.54l6.21,3.59a1,1,0,0,0,.94,0l6.5-3.75c.27-.16.3-.4.05-.55l-6.21-3.58A1,1,0,0,0,172.78,342.31Zm37.95-21.91-6.49,3.75c-.28.16-.3.4-.06.54l6.21,3.59a1.1,1.1,0,0,0,1,0l6.49-3.75c.27-.16.3-.41,0-.55l-6.21-3.58A1,1,0,0,0,210.73,320.4Zm-9.49,5.48-6.49,3.75c-.28.15-.3.4-.06.54l6.21,3.59a1.06,1.06,0,0,0,.95,0l6.49-3.74c.28-.16.3-.41.06-.55l-6.22-3.58A1,1,0,0,0,201.24,325.88Zm19-11-6.49,3.75c-.28.16-.3.4-.06.54l6.21,3.59a1,1,0,0,0,.94,0l6.5-3.75c.27-.16.3-.4.05-.54l-6.21-3.59A1,1,0,0,0,220.22,314.92Zm-37.95,21.91-6.5,3.75c-.27.16-.3.4-.05.55l6.21,3.58a1,1,0,0,0,.94,0l6.49-3.75c.28-.16.3-.4.06-.54l-6.21-3.59A1,1,0,0,0,182.27,336.83Zm9.48-5.47-6.49,3.74c-.27.16-.3.41,0,.55l6.21,3.58a1,1,0,0,0,.94,0l6.49-3.75c.28-.16.3-.4.06-.54l-6.21-3.59A1.06,1.06,0,0,0,191.75,331.36ZM179.64,367l6.5-3.74c.27-.16.3-.41.05-.55L180,359.16a1,1,0,0,0-.94,0l-6.49,3.75c-.28.15-.31.4-.06.54l6.21,3.59A1,1,0,0,0,179.64,367Zm-50-2.36-6.21-3.58a1,1,0,0,0-.94,0L116,364.87c-.28.16-.3.4-.06.54l6.21,3.59a1,1,0,0,0,.94,0l6.5-3.74C129.83,365.06,129.86,364.81,129.61,364.67ZM142,367.78l-6.21-3.59a1,1,0,0,0-.94,0l-10,5.77c-.28.16-.3.4-.06.54l6.21,3.59a1.06,1.06,0,0,0,.95,0l10-5.77C142.2,368.16,142.22,367.92,142,367.78Zm-21.64-10.19L114.13,354a1,1,0,0,0-.94,0l-8,4.61c-.28.16-.3.4-.06.54l6.21,3.59a1.06,1.06,0,0,0,1,0l8-4.62C120.56,358,120.59,357.73,120.34,357.59Zm6.13-3.54a1,1,0,0,0,.94,0l6.49-3.75c.28-.16.3-.4.06-.54l-6.21-3.59a1.06,1.06,0,0,0-1,0l-6.49,3.74c-.27.16-.3.41,0,.55Zm26.88,17.41-6.21-3.59a1,1,0,0,0-.94,0l-12.49,7.21c-.27.16-.3.4-.05.55l6.21,3.58a1,1,0,0,0,.94,0L153.29,372C153.57,371.84,153.59,371.6,153.35,371.46Zm4.38,7.71-6.21-3.58a1.06,1.06,0,0,0-1,0l-8,4.61c-.27.16-.3.41-.05.55l6.21,3.58a1,1,0,0,0,.94,0l8-4.61C158,379.56,158,379.32,157.73,379.17ZM197,313.33a1,1,0,0,0,.94,0l6.5-3.75c.27-.15.3-.4.05-.54l-6.21-3.59a1,1,0,0,0-.94,0l-6.49,3.74c-.28.16-.3.41-.06.55Zm-19,10.95a1,1,0,0,0,.94,0l6.49-3.75c.28-.16.3-.4.06-.54l-6.21-3.59a1.06,1.06,0,0,0-.95,0l-6.49,3.75c-.28.16-.3.4-.06.55ZM136,348.58a1.06,1.06,0,0,0,1,0l6.49-3.74c.28-.16.3-.41.06-.55l-6.21-3.58a1,1,0,0,0-1,0l-6.49,3.75c-.28.15-.3.4-.06.54Zm51.57-29.78a1.06,1.06,0,0,0,.95,0L195,315c.27-.16.3-.4,0-.54l-6.21-3.59a1.07,1.07,0,0,0-.94,0l-6.49,3.75c-.28.16-.3.41-.06.55Zm-19,11a1,1,0,0,0,.94,0L176,326c.28-.16.3-.4.06-.55l-6.21-3.58a1.06,1.06,0,0,0-1,0l-6.49,3.75c-.27.16-.3.4,0,.54Zm-6.16,49.8a1.06,1.06,0,0,0-.95,0l-10,5.77c-.28.16-.3.4-.06.54l6.21,3.59a1,1,0,0,0,.94,0l10-5.76c.28-.16.3-.41.06-.55Zm-7.46-41.94a1,1,0,0,0,.94,0l6.5-3.75c.27-.16.3-.4,0-.54l-6.21-3.59a1,1,0,0,0-.94,0l-6.49,3.75c-.28.16-.3.4-.06.54Zm-9.49,5.48a1.06,1.06,0,0,0,.95,0l6.49-3.75c.27-.16.3-.41.05-.55l-6.21-3.58a1,1,0,0,0-.94,0L139.29,339c-.28.16-.3.4-.06.54Zm192.72-65a1,1,0,0,0-.94,0l-16,9.22c-.28.16-.3.4-.06.55l6.22,3.58a1,1,0,0,0,.94,0l16-9.23c.27-.16.3-.4.05-.54Zm-21,12.11a1,1,0,0,0-.94,0L309.76,294c-.28.16-.31.41-.06.55l6.21,3.58a1,1,0,0,0,.94,0l6.49-3.75c.28-.16.31-.4.06-.54ZM189.13,361.56l6.49-3.75c.28-.16.3-.41.06-.55l-6.21-3.58a1,1,0,0,0-.94,0l-6.5,3.75c-.27.16-.3.4-.05.54l6.21,3.59A1.07,1.07,0,0,0,189.13,361.56Zm109.08-60.42a1,1,0,0,0-.94,0l-6.49,3.75c-.28.16-.3.4-.06.54l6.21,3.59a1.06,1.06,0,0,0,.95,0l6.49-3.75c.27-.16.3-.41.05-.55Zm49.44-28.54a1,1,0,0,0-.94,0l-6.49,3.75c-.28.15-.3.4-.06.54l6.21,3.59a1,1,0,0,0,.94,0l6.5-3.74c.27-.16.3-.41.05-.55Zm15.7-1.9L348.27,262a1.06,1.06,0,0,0-.95,0l-6.49,3.75c-.27.15-.3.4-.05.54L355.86,275a1.07,1.07,0,0,0,.94,0l6.49-3.75C363.57,271.09,363.59,270.84,363.35,270.7ZM262.76,321.61a1,1,0,0,0-.94,0l-8,4.61c-.28.16-.3.41-.06.55l6.21,3.58a1,1,0,0,0,.94,0l8-4.61c.28-.16.3-.41.06-.55Zm24-13.84a1,1,0,0,0-.94,0l-10,5.77c-.28.16-.3.4-.06.54L282,317.7a1.1,1.1,0,0,0,.95,0l10-5.77c.28-.16.3-.4.06-.55Zm-45.94,26.52a1.06,1.06,0,0,0-.95,0l-53.43,30.84c-.27.16-.3.41,0,.55l6.21,3.58a1,1,0,0,0,.94,0l53.43-30.85c.28-.16.3-.4.06-.54Zm-56.43,32.58a1.07,1.07,0,0,0-.94,0l-8,4.62c-.28.16-.31.4-.06.54l6.21,3.59a1.07,1.07,0,0,0,.94,0l8-4.62c.28-.16.3-.4.06-.54ZM251.77,328a1,1,0,0,0-.94,0l-8,4.62c-.28.16-.3.4-.06.54l6.21,3.59a1.06,1.06,0,0,0,.95,0l8-4.61c.27-.16.3-.4.05-.54Zm-78.4,45.26a1,1,0,0,0-.94,0l-8,4.61c-.28.16-.3.4-.06.54l6.21,3.59a1.06,1.06,0,0,0,.95,0l8-4.61c.27-.16.3-.41.05-.55Zm100.37-57.94a1,1,0,0,0-.94,0l-8,4.61c-.27.16-.3.4-.05.54L271,324a1,1,0,0,0,.94,0l8-4.61c.28-.16.3-.41.06-.55Zm34-19.61a1,1,0,0,0-.94,0l-6.49,3.75c-.28.16-.3.4-.06.54l6.21,3.59a1,1,0,0,0,.94,0l6.5-3.75c.27-.16.3-.4.05-.54ZM329,280.83l6.5-3.75c.27-.16.3-.4.05-.54L329.29,273a1,1,0,0,0-.94,0l-6.49,3.75c-.28.16-.3.4-.06.55l6.21,3.58A1,1,0,0,0,329,280.83Zm-38.71,1.86,6.49-3.75c.27-.15.3-.4,0-.54l-6.21-3.59a1,1,0,0,0-.94,0l-6.49,3.74c-.28.16-.3.41-.06.55l6.21,3.58A1,1,0,0,0,290.24,282.69Zm-25.21,35,19-11c.28-.16.3-.41.06-.55l-6.21-3.58a1.06,1.06,0,0,0-.95,0l-19,10.95c-.28.16-.3.41-.06.55l6.21,3.58A1,1,0,0,0,265,317.73Zm53.49-31.39a1.06,1.06,0,0,0,1,0l6.49-3.75c.27-.16.3-.4.05-.55l-6.21-3.58a1,1,0,0,0-.94,0l-6.49,3.75c-.28.16-.3.4-.06.54Zm-7.93-5.16,6.5-3.74c.27-.16.3-.41.05-.55l-6.21-3.58a1,1,0,0,0-.94,0l-6.49,3.75c-.28.16-.31.4-.06.54l6.21,3.59A1,1,0,0,0,310.59,281.18Zm-55,42,6.49-3.75c.27-.16.3-.4,0-.54l-6.21-3.59a1,1,0,0,0-.94,0l-6.49,3.75c-.28.16-.3.41-.06.55l6.21,3.58A1.06,1.06,0,0,0,255.55,323.21Zm42-24.76a1.07,1.07,0,0,0,.94,0l6.49-3.75c.28-.16.3-.41.06-.55l-6.21-3.58a1,1,0,0,0-.94,0l-6.5,3.75c-.27.16-.3.4-.05.54ZM208.11,350.6l6.49-3.75c.27-.16.3-.4.05-.54l-6.21-3.59a1,1,0,0,0-.94,0L201,346.5c-.28.16-.3.4-.06.55l6.21,3.58A1.06,1.06,0,0,0,208.11,350.6Zm9.49-5.48,6.49-3.75c.27-.16.3-.4,0-.54l-6.21-3.59a1,1,0,0,0-.94,0L210.5,341c-.28.16-.3.41-.06.55l6.21,3.58A1,1,0,0,0,217.6,345.12Zm-19,11,6.49-3.75c.28-.16.3-.4.06-.55L199,348.2a1.06,1.06,0,0,0-1,0L191.52,352c-.27.16-.3.4-.05.54l6.21,3.59A1,1,0,0,0,198.62,356.08Zm37.95-21.91,6.49-3.75c.28-.16.3-.41.06-.55l-6.21-3.58a1.06,1.06,0,0,0-.95,0l-6.49,3.75c-.27.16-.3.4-.05.54l6.21,3.59A1.07,1.07,0,0,0,236.57,334.17Zm-9.49,5.47,6.49-3.74c.28-.16.31-.41.06-.55l-6.21-3.58a1,1,0,0,0-.94,0L220,335.55c-.28.16-.31.4-.06.54l6.21,3.59A1,1,0,0,0,227.08,339.64Zm19-10.95,6.49-3.75c.28-.16.3-.4.06-.54l-6.21-3.59a1.06,1.06,0,0,0-1,0L239,324.59c-.27.16-.3.4-.05.54l6.21,3.59A1,1,0,0,0,246.06,328.69Zm51.77-76.21a1.06,1.06,0,0,0,.95,0l6.49-3.75c.28-.16.3-.4.06-.54l-1.66-1a1,1,0,0,0-.94,0L296.24,251c-.28.16-.3.41-.06.55Zm-47.15,29.86a1,1,0,0,0,.94,0l6.49-3.75c.28-.16.3-.4.06-.54L252,274.43a1.06,1.06,0,0,0-1,0l-6.49,3.75c-.27.16-.3.4-.05.55Zm19-10.95a1.06,1.06,0,0,0,1,0l6.49-3.74c.27-.16.3-.41.05-.55l-6.21-3.59a1,1,0,0,0-.94,0l-6.49,3.75c-.28.15-.3.4-.06.54ZM239.09,289a1,1,0,0,0,.94,0l6.5-3.75c.27-.16.3-.4.05-.54l-6.21-3.59a1,1,0,0,0-.94,0l-6.49,3.75c-.28.16-.3.4-.06.54Zm21.07-12.17a1,1,0,0,0,.95,0l6.49-3.75c.27-.16.3-.4,0-.54L261.44,269a1,1,0,0,0-.94,0L254,272.73c-.28.16-.3.41-.06.55ZM220.11,300a1.06,1.06,0,0,0,.95,0l6.49-3.74c.28-.16.3-.41.06-.55l-6.21-3.58a1,1,0,0,0-1,0L214,295.86c-.28.16-.3.4-.06.54Zm9.49-5.48a1.1,1.1,0,0,0,1,0l6.49-3.75c.27-.16.3-.4.05-.55l-6.21-3.58a1,1,0,0,0-.94,0l-6.49,3.75c-.28.16-.3.4-.06.54Zm49.26-31.07a1,1,0,0,0,.94,0l6.49-3.75c.28-.16.3-.4.06-.55l-1.65-.95a1.06,1.06,0,0,0-.95,0l-6.49,3.75c-.27.16-.3.4-.05.54ZM307.32,247a1.06,1.06,0,0,0,.95,0l6.49-3.74c.27-.16.3-.41.05-.55l-1.65-1a1,1,0,0,0-.94,0l-6.49,3.75c-.28.16-.31.4-.06.54Zm13.05,7.53a1.07,1.07,0,0,0,.94,0l6.49-3.75c.28-.16.31-.41.06-.55l-6.21-3.58a1,1,0,0,0-.94,0l-6.5,3.75c-.27.16-.3.4,0,.54Zm18.07,20.81,6.49-3.75c.28-.16.31-.4.06-.54l-6.21-3.59a1.07,1.07,0,0,0-.94,0l-6.5,3.75c-.27.16-.3.41,0,.55l6.21,3.58A1,1,0,0,0,338.44,275.35ZM288.35,258a1,1,0,0,0,.94,0l6.49-3.75c.28-.16.3-.4.06-.54l-1.66-1a1,1,0,0,0-.94,0l-6.49,3.75c-.28.16-.3.41-.06.55Zm-77.72,47.5a1,1,0,0,0,.94,0l6.49-3.75c.28-.16.3-.4.06-.54l-6.21-3.59a1.06,1.06,0,0,0-.95,0l-6.49,3.74c-.27.16-.3.41-.05.55Z" style="fill:#455a64"></path><polygon points="238.71 354.4 240.04 355.17 275.39 375.57 338.26 339.27 339.57 338.53 302.89 317.35 238.71 354.4" style="fill:#37474f"></polygon><polygon points="240.04 355.17 275.39 375.57 338.26 339.27 302.89 318.86 240.04 355.17" style="fill:#263238"></polygon></g></g><g id="freepik--Code--inject-5"><g id="freepik--Numbers--inject-5"><g id="freepik--speach-bubble--inject-5"><path d="M165.5,265.65a3.72,3.72,0,0,0-1.68-2.92l-1.37-.79a3.71,3.71,0,0,0-3.37,0l-21,12.15a3.75,3.75,0,0,0-1.68,2.92v39.13a3.75,3.75,0,0,0,1.68,2.92l1.37.79a3.71,3.71,0,0,0,3.37,0l21-12.15a3.72,3.72,0,0,0,1.68-2.92Z" style="fill:#60A5FA"></path><path d="M136.39,316.14a3.75,3.75,0,0,0,1.68,2.92l1.37.79a3.75,3.75,0,0,0,3.08.13c-.79.3-1.39-.14-1.39-1.1V279.74a3.49,3.49,0,0,1,.49-1.66l-4.73-2.73a3.36,3.36,0,0,0-.5,1.66Z" style="opacity:0.2"></path><path d="M165.45,265.17c-.2-.72-.85-.94-1.63-.5l-21,12.16a3.34,3.34,0,0,0-1.19,1.25l-4.73-2.73a3.45,3.45,0,0,1,1.19-1.26l21-12.15a3.77,3.77,0,0,1,3.37,0l1.37.79A3.77,3.77,0,0,1,165.45,265.17Z" style="fill:#fff;opacity:0.30000000000000004"></path></g><path d="M158.21,276.18a.38.38,0,0,1,.49,0,.86.86,0,0,1,.2.63v2.59a4,4,0,0,1-.1.86c-.07.31-.17.73-.31,1.25l-5.9,24.38a5.37,5.37,0,0,1-.27.8,1.17,1.17,0,0,1-.47.57l-2.12,1.22a.35.35,0,0,1-.48,0,.8.8,0,0,1-.2-.62,2.75,2.75,0,0,1,.07-.52l5.93-24.43-8,4.61a.36.36,0,0,1-.48,0,.83.83,0,0,1-.21-.63v-2.78a1.94,1.94,0,0,1,.21-.86,1.18,1.18,0,0,1,.48-.59Z" style="fill:#fafafa"></path><g id="freepik--speach-bubble--inject-5"><path d="M199.66,245.92A3.74,3.74,0,0,0,198,243l-1.37-.79a3.71,3.71,0,0,0-3.37,0l-21,12.15a3.72,3.72,0,0,0-1.68,2.91v39.14a3.72,3.72,0,0,0,1.68,2.92l1.37.79a3.77,3.77,0,0,0,3.37,0L198,288a3.75,3.75,0,0,0,1.68-2.92Z" style="fill:#60A5FA"></path><path d="M170.55,296.42a3.72,3.72,0,0,0,1.68,2.92l1.37.79a3.75,3.75,0,0,0,3.08.13c-.79.3-1.4-.14-1.4-1.1V260a3.4,3.4,0,0,1,.5-1.66L171,255.63a3.45,3.45,0,0,0-.49,1.65Z" style="opacity:0.2"></path><path d="M199.6,245.45c-.19-.72-.85-.95-1.62-.5l-21,12.16a3.26,3.26,0,0,0-1.19,1.25l-4.73-2.73a3.42,3.42,0,0,1,1.18-1.26l21-12.15a3.75,3.75,0,0,1,3.36,0L198,243A3.72,3.72,0,0,1,199.6,245.45Z" style="fill:#fff;opacity:0.30000000000000004"></path></g><path d="M181.52,263.78a2,2,0,0,1,.21-.87,1.27,1.27,0,0,1,.48-.59l9.57-5.52a.38.38,0,0,1,.49,0,.86.86,0,0,1,.2.63v2.78a2,2,0,0,1-.2.86,1.33,1.33,0,0,1-.49.6l-7.15,4.12-.28,5.18a7,7,0,0,1,1.36-1.29q.67-.46,1.11-.72a6.64,6.64,0,0,1,2.65-.94,3,3,0,0,1,2.11.52,4.24,4.24,0,0,1,1.4,2,10.57,10.57,0,0,1,.51,3.58,19.32,19.32,0,0,1-.52,4.6,16.41,16.41,0,0,1-1.43,3.76,12.28,12.28,0,0,1-2.13,2.91,11.93,11.93,0,0,1-2.59,2,7.54,7.54,0,0,1-3,1.12,3.09,3.09,0,0,1-2.09-.5,3.65,3.65,0,0,1-1.24-1.75,8.46,8.46,0,0,1-.47-2.65,1.6,1.6,0,0,1,.19-.88,1.38,1.38,0,0,1,.49-.58l2.06-1.19a.43.43,0,0,1,.46,0,.77.77,0,0,1,.28.53,2.49,2.49,0,0,0,.49,1.19,1.36,1.36,0,0,0,.76.46,1.88,1.88,0,0,0,1-.11,7,7,0,0,0,1.12-.53,6,6,0,0,0,2.34-2.57,8.29,8.29,0,0,0,.89-3.84,2.86,2.86,0,0,0-.89-2.43,2.08,2.08,0,0,0-2.34.14,5.75,5.75,0,0,0-1.94,1.7c-.18.27-.35.5-.51.71a1.69,1.69,0,0,1-.58.51l-2.34,1.36a.38.38,0,0,1-.49,0,.85.85,0,0,1-.2-.62Z" style="fill:#fafafa"></path><g id="freepik--speach-bubble--inject-5"><path d="M131.29,285.37a3.73,3.73,0,0,0-1.68-2.92l-1.37-.79a3.77,3.77,0,0,0-3.37,0l-21,12.15a3.73,3.73,0,0,0-1.68,2.92v39.14a3.72,3.72,0,0,0,1.68,2.91l1.37.79a3.71,3.71,0,0,0,3.37,0l21-12.15a3.72,3.72,0,0,0,1.68-2.91Z" style="fill:#60A5FA"></path><path d="M102.18,335.87a3.72,3.72,0,0,0,1.68,2.91l1.37.79a3.75,3.75,0,0,0,3.08.14c-.79.3-1.39-.15-1.39-1.11V299.46a3.41,3.41,0,0,1,.49-1.66l-4.74-2.73a3.49,3.49,0,0,0-.49,1.66Z" style="opacity:0.2"></path><path d="M131.23,284.89c-.19-.71-.84-.94-1.62-.49l-21,12.15a3.29,3.29,0,0,0-1.19,1.26l-4.73-2.74a3.4,3.4,0,0,1,1.18-1.25l21-12.16a3.77,3.77,0,0,1,3.37,0l1.37.8A3.67,3.67,0,0,1,131.23,284.89Z" style="fill:#fff;opacity:0.30000000000000004"></path></g><path d="M124,295.9a.36.36,0,0,1,.48,0,.86.86,0,0,1,.21.63v2.59a4.64,4.64,0,0,1-.1.86c-.07.31-.17.73-.31,1.26l-5.91,24.38a4.67,4.67,0,0,1-.26.8,1.15,1.15,0,0,1-.47.56l-2.12,1.22a.36.36,0,0,1-.48,0,.83.83,0,0,1-.21-.63,3.07,3.07,0,0,1,.08-.51l5.93-24.44-8,4.62a.35.35,0,0,1-.48,0,.8.8,0,0,1-.21-.62v-2.79a2,2,0,0,1,.21-.86,1.22,1.22,0,0,1,.48-.59Z" style="fill:#fafafa"></path><g id="freepik--speach-bubble--inject-5"><path d="M256.58,213.06a3.72,3.72,0,0,0-1.68-2.92l-1.37-.79a3.75,3.75,0,0,0-3.36,0l-21,12.15a3.72,3.72,0,0,0-1.68,2.92v39.14a3.72,3.72,0,0,0,1.68,2.91l1.37.79a3.69,3.69,0,0,0,3.36,0l21-12.15a3.73,3.73,0,0,0,1.69-2.91Z" style="fill:#60A5FA"></path><path d="M227.48,263.56a3.72,3.72,0,0,0,1.68,2.91l1.37.79a3.75,3.75,0,0,0,3.08.14c-.8.3-1.4-.15-1.4-1.11V227.15a3.52,3.52,0,0,1,.49-1.66L228,222.76a3.38,3.38,0,0,0-.49,1.66Z" style="opacity:0.2"></path><path d="M256.53,212.58c-.2-.71-.85-.94-1.62-.49l-21,12.15a3.39,3.39,0,0,0-1.18,1.25L228,222.76a3.42,3.42,0,0,1,1.19-1.25l21-12.16a3.77,3.77,0,0,1,3.37,0l1.38.8A3.67,3.67,0,0,1,256.53,212.58Z" style="fill:#fff;opacity:0.30000000000000004"></path></g><path d="M245.3,238a8.57,8.57,0,0,0,1-2.49,10.56,10.56,0,0,0,.22-1.93,3.61,3.61,0,0,0-.64-2.35c-.42-.5-1.13-.47-2.11.1a4.83,4.83,0,0,0-2.05,2.24,12,12,0,0,0-.93,3.24,2.42,2.42,0,0,1-.31.95,1.42,1.42,0,0,1-.46.52l-2,1.16a.42.42,0,0,1-.49,0c-.15-.11-.21-.33-.19-.66a16.56,16.56,0,0,1,.58-3.67,18.21,18.21,0,0,1,1.36-3.52,15.67,15.67,0,0,1,2-3,9.61,9.61,0,0,1,2.47-2.11,4.73,4.73,0,0,1,2.78-.8,3,3,0,0,1,1.93,1,5.15,5.15,0,0,1,1.13,2.17,10.52,10.52,0,0,1,.37,2.86c0,.65,0,1.29-.07,1.91a11,11,0,0,1-.36,2,20.31,20.31,0,0,1-.81,2.31,31.73,31.73,0,0,1-1.43,2.88L242.55,250l7.08-4.08a.36.36,0,0,1,.48,0,.83.83,0,0,1,.21.63v2.78a1.91,1.91,0,0,1-.21.86,1.38,1.38,0,0,1-.48.6l-11.89,6.86a.38.38,0,0,1-.49,0,.86.86,0,0,1-.2-.63v-2.39a3.52,3.52,0,0,1,.26-1.31,6.1,6.1,0,0,1,.43-.93Z" style="fill:#fafafa"></path><g id="freepik--speach-bubble--inject-5"><path d="M290.74,193.34a3.72,3.72,0,0,0-1.68-2.92l-1.37-.79a3.77,3.77,0,0,0-3.37,0l-21,12.15a3.73,3.73,0,0,0-1.69,2.92v39.14a3.73,3.73,0,0,0,1.69,2.91l1.37.79a3.69,3.69,0,0,0,3.36,0l21-12.15a3.72,3.72,0,0,0,1.68-2.91Z" style="fill:#60A5FA"></path><path d="M261.63,243.84a3.73,3.73,0,0,0,1.69,2.91l1.37.79a3.73,3.73,0,0,0,3.07.14c-.79.3-1.39-.15-1.39-1.11V207.43a3.49,3.49,0,0,1,.49-1.66L262.13,203a3.4,3.4,0,0,0-.5,1.66Z" style="opacity:0.2"></path><path d="M290.69,192.86c-.2-.71-.85-.94-1.63-.5l-21,12.16a3.42,3.42,0,0,0-1.19,1.25L262.13,203a3.34,3.34,0,0,1,1.19-1.25l21-12.16a3.77,3.77,0,0,1,3.37,0l1.37.8A3.72,3.72,0,0,1,290.69,192.86Z" style="fill:#fff;opacity:0.30000000000000004"></path></g><path d="M284.7,213.38c0,.49,0,1,0,1.63v3.69c0,.6,0,1.15,0,1.66a32.22,32.22,0,0,1-.45,4.47,17.87,17.87,0,0,1-1.17,4,13.73,13.73,0,0,1-2.08,3.43,11.53,11.53,0,0,1-3.15,2.62,5.93,5.93,0,0,1-3.15,1,2.79,2.79,0,0,1-2.08-1,6.37,6.37,0,0,1-1.17-2.7,22.3,22.3,0,0,1-.45-4c0-1-.05-2.09-.05-3.36s0-2.4.05-3.42a33.28,33.28,0,0,1,.45-4.51,18.91,18.91,0,0,1,1.17-4.1,14.4,14.4,0,0,1,2.08-3.49,11.25,11.25,0,0,1,3.15-2.67,6.1,6.1,0,0,1,3.15-1,2.74,2.74,0,0,1,2.08,1,6.09,6.09,0,0,1,1.17,2.69A22.41,22.41,0,0,1,284.7,213.38Zm-10.26,12.7a8,8,0,0,0,.88,3.87c.5.74,1.34.77,2.53.08a5.72,5.72,0,0,0,2.54-3,15.67,15.67,0,0,0,.87-4.87c0-1,.05-2.12.05-3.33s0-2.29-.05-3.26a7.89,7.89,0,0,0-.87-3.86c-.51-.74-1.35-.77-2.54-.09a5.7,5.7,0,0,0-2.53,3,16,16,0,0,0-.88,4.88c0,1-.05,2.12-.05,3.32S274.41,225.11,274.44,226.08Z" style="fill:#fafafa"></path><g id="freepik--speach-bubble--inject-5"><path d="M324.9,173.62a3.75,3.75,0,0,0-1.68-2.92l-1.37-.79a3.77,3.77,0,0,0-3.37,0l-21,12.15a3.72,3.72,0,0,0-1.68,2.92v39.14a3.72,3.72,0,0,0,1.68,2.91l1.37.79a3.71,3.71,0,0,0,3.37,0l21-12.15a3.72,3.72,0,0,0,1.68-2.91Z" style="fill:#60A5FA"></path><path d="M295.79,224.12a3.72,3.72,0,0,0,1.68,2.91l1.37.79a3.75,3.75,0,0,0,3.08.14c-.79.3-1.4-.15-1.4-1.11V187.71a3.4,3.4,0,0,1,.5-1.66l-4.74-2.73a3.49,3.49,0,0,0-.49,1.66Z" style="opacity:0.2"></path><path d="M324.84,173.14c-.19-.71-.84-.94-1.62-.5l-21,12.16a3.34,3.34,0,0,0-1.19,1.25l-4.73-2.73a3.32,3.32,0,0,1,1.18-1.25l21-12.16a3.75,3.75,0,0,1,3.36,0l1.38.8A3.67,3.67,0,0,1,324.84,173.14Z" style="fill:#fff;opacity:0.30000000000000004"></path></g><path d="M206.5,256.14l10-5.79a2.35,2.35,0,0,1,2.16,0l1.9,1.1a2.37,2.37,0,0,1,1.08,1.87v2.19a2.4,2.4,0,0,1-1.08,1.88l-10,5.78a2.37,2.37,0,0,1-2.17,0l-1.89-1.09a2.41,2.41,0,0,1-1.09-1.88V258A2.38,2.38,0,0,1,206.5,256.14Z" style="fill:#455a64"></path><path d="M210.23,263.3a2.31,2.31,0,0,1-1.83-.13l-1.9-1.09a2.4,2.4,0,0,1-1.08-1.88V258a2.27,2.27,0,0,1,.31-1.07l4.06,2.35a2.26,2.26,0,0,0-.31,1.06v2.2C209.48,263.11,209.79,263.39,210.23,263.3Z" style="fill:#263238"></path><path d="M209.48,262.55v-2.19a2.4,2.4,0,0,1,1.08-1.88l10-5.79c.6-.34,1.08-.06,1.08.63v2.19a2.4,2.4,0,0,1-1.08,1.88l-10,5.78C210,263.52,209.48,263.24,209.48,262.55Z" style="fill:#37474f"></path></g></g><g id="freepik--Character--inject-5"><g id="freepik--character--inject-5"><path id="freepik--shadow--inject-5" d="M435.9,298.69a12.82,12.82,0,0,0-5.32-6.82L400,274.21a31.09,31.09,0,0,0-5.7-.37c-6.73.21-13.15,2.82-19.18,5.81-13.69,6.81-27.68,11.65-40.29,20.42-1.6,1.12-6,3.79-3.48,6.53a8.12,8.12,0,0,0,5.43,2.06c4-.31,11.9-6.68,10.65-4.8a6.84,6.84,0,0,0-1.07,3.62,2.63,2.63,0,0,0,1.51,2.39c1.1.37,1.58-1.88,2.06-3.15a11.8,11.8,0,0,1,4.57-5.69,15.74,15.74,0,0,1,10.94-1.91,47.11,47.11,0,0,1,10.78,3.48c5.74,2.38,9.6,3.7,15.05,6.67,2.52,1.37,9.59,5.78,10,6.26.61.73.48,5.89.55,6.83l.36,5.27,28.42-16.41a12.62,12.62,0,0,0,4.85-5.62c0-.23.08-.47.11-.7A31.5,31.5,0,0,0,435.9,298.69Z" style="opacity:0.15"></path><path d="M414.33,332.12c-.8.67-1.72,1.46-1.73,2.41a9.62,9.62,0,0,0,2,5.65c1.75,2.37,2.6,6.6,2.66,9.42s-.46,9.93,2.76,13.1,11.6,5.51,12.17.35-7.45-26.16-7.45-26.16Z" style="fill:#263238"></path><path d="M418.7,336a77.21,77.21,0,0,1,2.23,11.48c.42,4.24,1.32,7.3,3.31,8.65s5.17,1.49,4.3-1.46-3.83-17.74-3.83-17.74Z" style="fill:#9a4a4d"></path><path d="M399.14,262.38s15.95,9.54,23.64,14.82,15,10.43,16.22,14.14c1.3,3.93-.11,12.78-1.95,21.24s-5.39,23.64-5.39,23.64l-20-38.48-22.29-18.52Z" style="fill:#b16668"></path><path d="M409,294.89l-19.94-13.61,10.09-18.9s14.78,8.5,25.69,15.8c8.84,5.91,15.16,10.51,15.21,14.37s-1.42,17.12-3.63,22.62c0,0-8.72,2.86-16.36-.53Z" style="fill:#60A5FA"></path><path d="M409,294.89l-19.94-13.61,10.09-18.9s14.78,8.5,25.69,15.8c8.84,5.91,15.16,10.51,15.21,14.37s-1.42,17.12-3.63,22.62c0,0-8.72,2.86-16.36-.53Z" style="fill:#fff;opacity:0.6000000000000001"></path><path d="M426.47,302.8c-1.76-5.75-6.94-9.27-11.44-12.78-3.57-2.8-12.17-9.08-15.68-11.67a9.31,9.31,0,0,0,.61-5.58c-1.88,4.93-3.16,6.08-3.16,6.08l22.39,20.89,13.54,32.05S428.23,308.54,426.47,302.8Z" style="opacity:0.15"></path><path d="M430.75,363.28c-.74.38-.83,2.11-.9,3.37s-1.16,2.8.45,4.94,4.66,2.64,6.85,5.55,5.47,8.21,12.26,9.31,11.81-1.37,13-3.43-.06-3.91-4.48-6.15c-4.69-2.39-6-3.1-6-3.1Z" style="fill:#263238"></path><path d="M437.31,349.11s3.69,8.83,5.86,12.86a47.51,47.51,0,0,0,9.12,11.26c.79.76,2.56,2.14,3.21,2.75a1.29,1.29,0,0,1,.05,2c-1.32,1.53-7.47,2.45-11.18.18s-7.57-6.88-9.84-8.77l-3-2.53a2.81,2.81,0,0,1-.95-2.6c0-.27.1-.6.15-1,.29-2-3.12-10-3.12-10Z" style="fill:#b16668"></path><path d="M361.41,267c-.92,5.48-2.66,11.07.62,17.79,3.17,6.5,12.24,11.81,22.17,16.41,8.22,3.81,20.32,9.28,22.75,10.09s2.8,2.2,2.89,6.67,2.32,11.6,8.12,20.23a214.64,214.64,0,0,1,11.52,19.84s7,.77,10.14-3.58c0,0-14.36-47.87-16.89-53.49s-26.14-22.32-26.14-22.32a31.13,31.13,0,0,0,2.55-16.28Z" style="fill:#b16668"></path><path d="M399.87,309.15s-18-7.58-28.74-14.28c-14.79-9.18-12-18-10.5-27.49l38.51-5c2.27,10.32-2.14,16.37-2.14,16.37l13.75,10.38c7.16,5.51,12,8.6,13.45,13.15s6.11,21.7,6.11,21.7a27.68,27.68,0,0,1-17,6.09s-3.35-5.43-3.89-9.38.33-7.07-1.29-7.93S404.37,311.11,399.87,309.15Z" style="fill:#60A5FA"></path><path d="M399.87,309.15s-18-7.58-28.74-14.28c-14.79-9.18-12-18-10.5-27.49l38.51-5c2.27,10.32-2.14,16.37-2.14,16.37l13.75,10.38c7.16,5.51,12,8.6,13.45,13.15s6.11,21.7,6.11,21.7a27.68,27.68,0,0,1-17,6.09s-3.35-5.43-3.89-9.38.33-7.07-1.29-7.93S404.37,311.11,399.87,309.15Z" style="fill:#fff;opacity:0.6000000000000001"></path><path d="M385.49,212.51a43.09,43.09,0,0,1,8.49,0,15.37,15.37,0,0,1,5.81,2.36C404.5,218,415.5,227,422.34,232.15c0,0,5.76-2.89,9.66-5.27,3.49-2.13,5.33,12-1,15.94-6.92,4.31-7.83,4.3-12.83,1.75-5.26-2.68-15.76-9.38-20.09-12.1Z" style="fill:#b16668"></path><path d="M422.34,232.15c-2.33,1.41-3.69,5.58-3.69,5.58s-.41-4.42,2.82-6.24Z" style="fill:#9a4a4d"></path><path d="M444.84,216.55h0l-1-.7h0a1.07,1.07,0,0,0-1,0l-9.92,4a3.78,3.78,0,0,0-2.05,2.42L426,244.39a1,1,0,0,0,.26,1.07h0l1.07.73h0a1.08,1.08,0,0,0,1,0l9.92-4a3.81,3.81,0,0,0,2.05-2.42c1-4.35,3.94-17.78,4.91-22.13A1,1,0,0,0,444.84,216.55Z" style="fill:#455a64"></path><path d="M432.91,221.27a3.68,3.68,0,0,0-1,1.7L427,245.09a1,1,0,0,0,.22,1.06l-1-.68h0a1,1,0,0,1-.26-1.07l4.9-22.13a3.72,3.72,0,0,1,.92-1.61Z" style="fill:#263238"></path><path d="M427,245.1,431.9,223a3.82,3.82,0,0,1,2.06-2.42l9.92-4c.92-.37,1.49.12,1.28,1.09-1,4.35-3.94,17.78-4.91,22.13a3.81,3.81,0,0,1-2.05,2.42l-9.92,4C427.36,246.55,426.79,246.06,427,245.1Z" style="fill:#37474f"></path><path d="M444.05,222.64c2-.71,3.35,1.36,3.44,5.15s-1.68,10.93-7.62,9.55c-2.31-.53-4.18-4.2-1.92-6a39,39,0,0,0,5.24-4.8Z" style="fill:#b16668"></path><path d="M401.77,263.88,397.13,259l-1.95-5.19-1-9.61c5.36-3.47,7.32-10,5.2-15.07a33.52,33.52,0,0,0-6-9.41c-4.2-4.85-6.3-6.47-7.9-7.25-2.2-.18-3.84-.15-3.84-.15s-9.15.73-12.95,1.27a64.19,64.19,0,0,0-6.62,1.28c2.88,4.05,4.34,11.3,2.27,17.48a10.22,10.22,0,0,1-7.27,7.1s.59,9.22.93,13.84c.55,7.33.35,13.33,1.2,23.69,8.6,3.17,22.4.9,32.07-4.21C400.79,267.79,401.77,263.88,401.77,263.88Z" style="fill:#37474f"></path><path d="M386,244.37a15.92,15.92,0,0,1-18.13-.63,10.89,10.89,0,0,0,8.9,5.57C384.46,249.59,386,244.37,386,244.37Z" style="fill:#263238"></path><path d="M386.13,169.17a4.87,4.87,0,0,1-1.55-.21,28.2,28.2,0,0,0-6.1-1.29A22,22,0,0,0,368.16,169a19.31,19.31,0,0,0-11.46,12.8c-1.78,6.62.52,12.8,4.32,17.71,2,2.57,5.64,5.07,7.09,6.08l1.37-1.5a15.38,15.38,0,0,0,7.53,1.63c2.52-.07,5,.26,7.41-.78a10.05,10.05,0,0,0,5.67-6.32,12.51,12.51,0,0,1,.88-2.76,9.73,9.73,0,0,1,2.24-2.29,16.76,16.76,0,0,0,5.52-10.23,6.24,6.24,0,0,0-.3-3.51,2.91,2.91,0,0,0-2.81-1.81,12.61,12.61,0,0,0,1.56-4.11,4.33,4.33,0,0,0-1.38-4,6.05,6.05,0,0,0-3.63-.91h-.31c-1.28,0-2.57,0-3.85,0C387.37,169.09,386.75,169.16,386.13,169.17Z" style="fill:#263238"></path><path d="M388.64,176.51c2.35,1.27,5.75,5.3,5.61,17.43-.12,10.05-3.33,13.26-5,14.05s-4.14.67-7.29.27l-.22,4.31c7.67,5.56,9.59,12.33,2.5,11.66-9-.85-16-8.7-16-9.5L368,201.25a4.32,4.32,0,0,1-5.06-1c-2.3-2.65-3-6.58-1.09-8.7s5.19-1.37,6.77.79c0,0,4.16-.1,10.67-4S387.28,181.29,388.64,176.51Z" style="fill:#b16668"></path><path d="M368.66,192.3l-.07,4.85h0a3.45,3.45,0,0,0,3.5-3.4l.08-5.8Z" style="fill:#263238"></path><path d="M393,187.21l-3-1.14a1.53,1.53,0,0,1,2-.95A1.67,1.67,0,0,1,393,187.21Z" style="fill:#263238"></path><path d="M381.35,200.3l4.51.9a2.21,2.21,0,0,1-2.62,1.84A2.42,2.42,0,0,1,381.35,200.3Z" style="fill:#9a4a4d"></path><polygon points="385.25 189.42 385.87 197.84 389.97 196.57 385.25 189.42" style="fill:#9a4a4d"></polygon><path d="M382,208.26c-3.32-.3-10.2-2-11.36-4.62a7,7,0,0,0,2.52,3.33c2.1,1.66,8.72,3.67,8.72,3.67Z" style="fill:#9a4a4d"></path><path d="M381.81,192.38a1.38,1.38,0,1,1-1.37-1.37A1.37,1.37,0,0,1,381.81,192.38Z" style="fill:#263238"></path><circle cx="390.88" cy="191.3" r="1.37" style="fill:#263238"></circle><path d="M363.52,171.67c-4.75,3.3-8,7.55-8.95,18.69-.72,8.51,1.21,14,3.28,16.24s10.89,7.74,14.9,4.41a5.86,5.86,0,0,1-3.48-3.12,18.55,18.55,0,0,1-1.21-5.77s-4.08.06-5.72-1.73-3.33-9.42-3-13.18C359.77,182.8,363.52,171.67,363.52,171.67Z" style="fill:#263238"></path><path d="M368.66,192.3s-.9-7.6,2.46-13,9.72-10,15-10.14c0,0-3.72-2.59-10.16-1.62,0,0-12.39,4.5-9.6,23A5.85,5.85,0,0,1,368.66,192.3Z" style="fill:#60A5FA"></path><path d="M362.08,214.91c-5.49,1.41-9.89,2.83-11.72,8.21-1,2.8-2.58,32.31-2.77,37s-.24,29.77-.58,30.59c-.7,1.7-7.73,4.72-10.17,6.23a19.74,19.74,0,0,0-5.72,5.35c-1.09,1.68,2.7,4.38,6.15,4.15,2-.14,9.36-5.09,12-5.33,1.7-.15-1.12,2.94-1.22,5.37-.08,1.76,1.52,2.3,1.93,1.31.52-1.24,4-5.44,5-6.72,1.48-1.76,3.93-5.42,3.93-8.89,0-4.48.59-14.91,2-29.79,1.17-12.48,2.14-21.86,2.14-21.86A37,37,0,0,0,366,227,17.67,17.67,0,0,0,362.08,214.91Z" style="fill:#b16668"></path></g></g></svg>
