<svg xmlns="http://www.w3.org/2000/svg" viewBox="0 0 500 500"><g id="freepik--character-3--inject-56"><polygon points="408.41 432 409.42 448.07 402.56 448.61 397.96 432.81 408.41 432" style="fill:#ce7a63"></polygon><path d="M404.16,447a2.38,2.38,0,0,0-2.38-.85c-1.33.44-3.08,2.62-3.08,2.62s-7.22,2.32-9.17,2.44-3.24,1.37-3.4,5H410.7s0-8.52-.83-10c-.72-1.28-2.17.37-2.17.37Z" style="fill:#263238"></path><path d="M386.69,455.1l4.27-.05,18.64-.19a.19.19,0,0,0,0-.37h-1.27v0a3.89,3.89,0,0,1,1.91-5,.18.18,0,1,0-.18-.31,4.24,4.24,0,0,0-2.1,5.36l-2.63,0-18.64.2A.19.19,0,0,0,386.69,455.1Z" style="fill:#fff"></path><path d="M399.54,450.27a2.29,2.29,0,0,0-3.38-.61c-.19.14-.37-.18-.18-.32a2.66,2.66,0,0,1,3.88.74c.13.19-.18.38-.32.19Z" style="fill:#fff"></path><path d="M397.5,450.88a2.3,2.3,0,0,0-3.38-.61c-.19.14-.37-.18-.18-.32a2.66,2.66,0,0,1,3.88.75c.13.19-.18.37-.32.18Z" style="fill:#fff"></path><path d="M395.4,451.5a2.29,2.29,0,0,0-3.38-.61c-.19.14-.37-.18-.19-.32a2.66,2.66,0,0,1,3.88.74c.14.19-.18.38-.31.19Z" style="fill:#fff"></path><polygon points="355.88 431.83 354.93 448.06 348.01 448.61 345.33 432.65 355.88 431.83" style="fill:#ce7a63"></polygon><path d="M349.6,447a2.38,2.38,0,0,0-2.38-.85c-1.33.44-3.08,2.62-3.08,2.62s-7.22,2.32-9.17,2.44-3.66,1.22-4.39,5h23.66s.93-8.54,1.07-10-2.17.37-2.17.37Z" style="fill:#263238"></path><path d="M331.28,455.1l4.26-.05,18.64-.19a.19.19,0,0,0,0-.37h-1.26s0,0,0,0a3.89,3.89,0,0,1,1.92-5,.18.18,0,1,0-.18-.31,4.24,4.24,0,0,0-2.1,5.36l-2.63,0-18.64.2A.19.19,0,0,0,331.28,455.1Z" style="fill:#fff"></path><path d="M345,450.27a2.29,2.29,0,0,0-3.38-.61c-.19.14-.37-.18-.18-.32a2.66,2.66,0,0,1,3.88.74c.14.19-.18.38-.32.19Z" style="fill:#fff"></path><path d="M342.94,450.88a2.29,2.29,0,0,0-3.37-.61c-.19.14-.38-.18-.19-.32a2.66,2.66,0,0,1,3.88.75c.14.19-.18.37-.32.18Z" style="fill:#fff"></path><path d="M340.84,451.5a2.29,2.29,0,0,0-3.38-.61c-.19.14-.37-.18-.18-.32a2.66,2.66,0,0,1,3.88.74c.13.19-.18.38-.32.19Z" style="fill:#fff"></path><path d="M339.76,262.66s-4,54.25-3.77,78.08c.28,24.78,8.36,96.91,8.36,96.91h13.24s2.44-70.86,3.62-95.2c1.29-26.54,9.22-84.14,9.22-84.14Z" style="fill:#263238"></path><path d="M363.74,312.93c1-9.74,2.23-19.8,3.31-28.59l-1.55-9.28S360.31,289.54,363.74,312.93Z" style="opacity:0.2"></path><path d="M358.58,433.64c0,1.43-.13,4.28-.13,4.28H343.2l-.46-4.28Z" style="fill:#60A5FA"></path><path d="M362.35,258.31s4,59.75,8.34,82.13c4.73,24.49,26.2,97.21,26.2,97.21H411.2s-9.2-70.55-11.64-94.81c-2.66-26.32-3.81-79.48-3.81-79.48Z" style="fill:#263238"></path><path d="M411.84,433.54c.14,1.46.36,4.38.36,4.38H395.44l-1-4.38Z" style="fill:#60A5FA"></path><path d="M398.18,268.45c-28.61,1.95-50.12,2.1-61.52-2.2-.79-50.38,1-81.72,3.34-89.38a7.94,7.94,0,0,1,4-4.76,28.86,28.86,0,0,1,9-2.8c6-.89,15.91-1.15,22.78-1.13,3.77,0,7.64.3,10.83.62,4,.41,6.55,3.95,6.38,7.93-.34,7.66-.37,15.41-.19,23,.11,4.38.28,8.7.5,12.93C394.71,239.68,398.13,262.56,398.18,268.45Z" style="fill:#60A5FA"></path><path d="M393.28,212.67l-12.28-27,11.78,14.08C392.89,204.12,393.06,208.44,393.28,212.67Z" style="opacity:0.2"></path><path d="M357.12,129c-1.51-1.64-6.58-1.78-9,1.38-2.58,3.38-5.85,9.62-7.93,8a4.86,4.86,0,0,0,4.39,3.33s-2.11,2.31-4.83,1.46a7.58,7.58,0,0,0,6.29,5c4.65.68,11.13-12.65,12.16-14.83C358.2,130.85,358,131,357.12,129Z" style="fill:#263238"></path><path d="M360,129.55A15,15,0,0,1,371.5,133c2.06,1.78,3.66,4.12,2.95,6.92-1.66,6.52-6.06,17-6.06,17l-19.74-15.19s-.1-6.33,3.07-9.47C353.38,130.63,357,129.89,360,129.55Z" style="fill:#263238"></path><path d="M356.39,129.19s6.8-4.85,15.85,1.88,0,18.91,0,18.91-2.9,5.39-.34,6.72a7.3,7.3,0,0,1-2.82.49s.88,1.64,2,1.49c0,0-1.57.63-4.35-.61S356.39,129.19,356.39,129.19Z" style="fill:#263238"></path><path d="M356.82,162.79h0s0,0,0,.09l.54,3.94a12.58,12.58,0,0,1-.25,2.32,13.17,13.17,0,0,1-.51,1.82c-1,1.05-1.71,3.61,1.28,4,3.77.49,11.36-4.17,11.82-5.8-1.11-5.37-1.83-11.57-.94-16.46l-4.87,4.12Z" style="fill:#ce7a63"></path><path d="M356.84,162.89l.54,3.94c2.49-.78,5.25-2.8,6.12-5.24.62-1.76,0-3.56-.7-3.74Z" style="opacity:0.2"></path><path d="M348.29,153.7c.12.86.27,1.71.43,2.55,1.5,7.43,10.22,9.16,16.34,4.58l0,0a13.31,13.31,0,0,0,1.56-1.37c4.05-4.15,3.61-7.77,4.07-15.82a11,11,0,0,0-15.2-10.88C348.37,135.68,347.07,145.11,348.29,153.7Z" style="fill:#ce7a63"></path><path d="M357.92,147.15c0,.65-.32,1.18-.75,1.19s-.77-.52-.78-1.17.33-1.18.75-1.18.78.51.78,1.16" style="fill:#263238"></path><path d="M350.86,147.22c0,.65-.33,1.18-.75,1.19s-.78-.52-.79-1.17.33-1.18.76-1.18.77.51.78,1.16" style="fill:#263238"></path><path d="M355.37,156l-.23,0a.26.26,0,0,1-.19-.29.25.25,0,0,1,.3-.19,3.59,3.59,0,0,0,4.24-3,.25.25,0,0,1,.3-.19.26.26,0,0,1,.18.3A4.06,4.06,0,0,1,355.37,156Z" style="fill:#263238"></path><path d="M370.7,144.38a6.9,6.9,0,0,0-2.42,3.53.76.76,0,0,1-.54.67l-2.92.24s1.78-7.76-.3-7.92.6-3.41-.58-4.08c-2.78-1.57-10.78-2.66-14.47,1.78,0,0,1.42-4.66,5.54-6.74s11.83-1.66,14.44,2.48S370.7,144.38,370.7,144.38Z" style="fill:#263238"></path><path d="M374.18,149a7.67,7.67,0,0,1-3.64,4.57c-2.36,1.28-4.14-.68-4-3.22.14-2.29,1.53-5.71,4.14-5.94s4.15,2.2,3.48,4.59" style="fill:#ce7a63"></path><path d="M348.93,144.53a.3.3,0,0,0,.27-.16,1.68,1.68,0,0,1,1-.87,2,2,0,0,1,1.3.19.31.31,0,0,0,.44-.11.32.32,0,0,0-.11-.44,2.57,2.57,0,0,0-1.79-.25,2.21,2.21,0,0,0-1.38,1.17.3.3,0,0,0,.12.43A.29.29,0,0,0,348.93,144.53Z" style="fill:#263238"></path><path d="M361.2,144.28a.35.35,0,0,0,.13-.05.3.3,0,0,0,.12-.43,2.54,2.54,0,0,0-1.43-1.11,2.26,2.26,0,0,0-1.78.33.32.32,0,0,0,.33.55,1.62,1.62,0,0,1,1.29-.26,1.88,1.88,0,0,1,1,.81A.31.31,0,0,0,361.2,144.28Z" style="fill:#263238"></path><path d="M354.05,146.6a7.14,7.14,0,0,1-2.1,3.46c-1.64,1.39,1.61,2.6,1.61,2.6Z" style="fill:#ba4d3c"></path><path d="M368,145.93a11.28,11.28,0,0,0-7.26,1.47c-.19-1.78-1.35-3.16-2.77-3.16s-2.7,1.53-2.78,3.46a2.46,2.46,0,0,0-2.88,0c-.1-1.9-1.31-3.41-2.79-3.41s-2.8,1.64-2.8,3.67,1.26,3.67,2.8,3.67,2.78-1.62,2.8-3.62c.14-.13,1.16-1.05,2.86,0,0,2,1.27,3.6,2.79,3.6s2.81-1.65,2.81-3.67a1.79,1.79,0,0,0,0-.23,10.78,10.78,0,0,1,7.22-1.5.12.12,0,0,0,.14-.11A.14.14,0,0,0,368,145.93Zm-18.48,5.4c-1.41,0-2.55-1.54-2.55-3.42s1.14-3.42,2.55-3.42,2.56,1.53,2.56,3.42S350.9,151.33,349.49,151.33Zm8.45,0c-1.4,0-2.55-1.54-2.55-3.42s1.15-3.42,2.55-3.42,2.56,1.53,2.56,3.42S359.35,151.33,357.94,151.33Z" style="fill:#fff"></path><path d="M339.49,178.88l-8.58,20.54c-1.44,3.4-2.91,6.78-4.4,10.09-.74,1.65-1.51,3.28-2.28,4.85s-1.56,3.11-2.31,4.37a11.29,11.29,0,0,1-.66,1h0l-1.11.53-1.22.55-2.5,1.09-10.29,4.36c-6.91,2.93-13.83,5.95-20.68,9.14l2.42,7.54c7.47-1.42,14.85-3.09,22.21-5,3.67-1,7.34-1.92,11-3l2.8-.85,1.42-.45,1.51-.52.57-.21.26-.11,1-.45.54-.25c.22-.13.43-.25.63-.39s.42-.28.54-.37a13.35,13.35,0,0,0,1.37-1.2c.45-.46.82-.88,1.14-1.27.61-.73,1.05-1.36,1.5-2,.76-1.1,1.42-2.16,2-3.19.46-.75.88-1.48,1.3-2.21,1-1.76,1.9-3.5,2.79-5.23,1.79-3.47,3.42-7,5-10.43,3.17-7,6.12-13.94,8.81-21.13Zm-17.77,40.66-.06,0,0,0,.1-.07.09-.05Z" style="fill:#60A5FA"></path><path d="M338.72,191.45c-.83,6-2.25,32.22-2.25,32.22a.42.42,0,0,1,0,.07c-.62,1-1.28,2.09-2,3.19-.45.63-.89,1.26-1.5,2C333.47,216.31,338.72,191.45,338.72,191.45Z" style="opacity:0.2"></path><path d="M288.49,240.61a20,20,0,0,0-1.15-4.33,7.49,7.49,0,0,0-4.58-2.27c-2.5-.06-4.49-.77-6.36-.68s.12,1.64,1.34,2.26,2.61,1.32,2,2.17-8.77,4.52-9.49,5.79.8,1.08.8,1.08-1.83.84-1.8,1.83,1.34.81,1.34.81-1.21.6-.68,1.4c.27.42,2.35.09,4.31-.31-.41.2-.69.44-.74.74-.18,1.22,2.52.82,4.68.54a9.67,9.67,0,0,0,5.86-2.89C285.51,245.11,288.89,243.15,288.49,240.61Zm-10.85,7a.84.84,0,0,1,.19,0Z" style="fill:#ce7a63"></path><path d="M270.93,247.33c2.09-.94,4.21-1.82,6.34-2.61a11.94,11.94,0,0,0,.8,1.6c.15.26.48-.07.33-.32a12.86,12.86,0,0,1-1.67-5.27c0-.31-.44-.21-.41.1a12.76,12.76,0,0,0,.22,1.4.17.17,0,0,0-.12,0,22.5,22.5,0,0,0-5,2.11c-.24.14-.08.58.17.44a21.93,21.93,0,0,1,4.86-2.07.22.22,0,0,0,.13-.12,12,12,0,0,0,.5,1.71c-2.14.79-4.25,1.66-6.35,2.61C270.51,247,270.67,247.45,270.93,247.33Z" style="fill:#ba4d3c"></path><path d="M278.94,242.49a5.44,5.44,0,0,1,6.33-2.18c.25.1.41-.36.16-.46-2.46-.91-5.07,0-6.83,2.37A.22.22,0,1,0,278.94,242.49Z" style="fill:#ba4d3c"></path><path d="M391.61,171.84c4.89,6.35,9.56,12.83,14.17,19.38,2.32,3.26,4.59,6.56,6.85,9.88s4.47,6.62,6.74,10.17l.44.68.53.87.26.44.07.11.23.43.25.52c.08.18.15.36.18.45a12.3,12.3,0,0,1,.37,1.22l.11.48.07.39a16.93,16.93,0,0,1,.21,2.37c0,.66,0,1.28,0,1.86-.06,2.32-.24,4.4-.44,6.49-.41,4.15-1,8.17-1.6,12.18-1.25,8-2.82,15.91-4.67,23.8l-8.39-1c0-8,.09-16,.21-23.88,0-4,.07-7.89,0-11.73,0-1.9-.09-3.81-.24-5.48,0-.42-.08-.8-.13-1.14a2.07,2.07,0,0,0-.14-.59h0l0,.12a2.64,2.64,0,0,0,.15.51l.11.27a3.73,3.73,0,0,0,.16.35l.15.27,0-.05-.15-.19-.69-.94c-2.26-3-4.76-6.21-7.14-9.37s-4.83-6.32-7.22-9.51c-4.8-6.37-9.56-12.77-14.15-19.3Z" style="fill:#60A5FA"></path><path d="M415.22,263.05c-1.83-4.74-5.92-3.53-7.12-2.33,0,0-3,3.08-3.65,4.84s-1.52,3.48-1.21,4.28c.15.38.68,0,1.2-.54a6.86,6.86,0,0,0-.48,2s.46,4.86,2.35,6.38,1.53-2.85,1.53-2.85.23,4.33,4.8,2.93c1.76-.53,3.7-5.72,4-8.61C417.45,266.71,415.22,263.05,415.22,263.05Z" style="fill:#ce7a63"></path><path d="M357.46,167.62s-3.89-.42-6,1.95c-.84,2.91,1,6.37,3,9.87l4.31-4.45C359.08,175,356.84,171.19,357.46,167.62Z" style="fill:#60A5FA"></path><path d="M357.46,167.62s-3.89-.42-6,1.95c-.84,2.91,1,6.37,3,9.87l4.31-4.45C359.08,175,356.84,171.19,357.46,167.62Z" style="opacity:0.2"></path><path d="M369.05,165.5c-1.84,4.25-5.78,7.06-10.26,9.49l2.43,4.45,15-11.26S371.92,164.36,369.05,165.5Z" style="fill:#60A5FA"></path><path d="M369.05,165.5c-1.84,4.25-5.78,7.06-10.26,9.49l2.43,4.45,15-11.26S371.92,164.36,369.05,165.5Z" style="opacity:0.2"></path><path d="M358.81,181.41a.77.77,0,1,1-.76-.77A.77.77,0,0,1,358.81,181.41Z" style="opacity:0.2"></path><path d="M358.81,186.43a.77.77,0,1,1-.76-.77A.77.77,0,0,1,358.81,186.43Z" style="opacity:0.2"></path><path d="M358.81,191.45a.77.77,0,1,1-.76-.77A.77.77,0,0,1,358.81,191.45Z" style="opacity:0.2"></path></g><g id="freepik--character-2--inject-56"><polygon points="263.08 438.04 265.14 448.42 270.62 448.42 271.35 438.04 263.08 438.04" style="fill:#ffc3bd"></polygon><path d="M269.9,447.1a2.37,2.37,0,0,1,2.36-.85c1.32.44,3,2.6,3,2.6s7.16,2.3,9.09,2.42,3.63,1.21,4.35,5H265.31s-.92-8.45-1.07-9.9,2.16.36,2.16.36Z" style="fill:#263238"></path><path d="M288,455.1l-4.22,0-18.46-.19c-.23,0-.23-.37,0-.36h1.25a.43.43,0,0,0,0,0,3.85,3.85,0,0,0-1.9-5c-.21-.11,0-.43.18-.31a4.21,4.21,0,0,1,2.08,5.31c.87,0,1.74,0,2.61,0l18.45.19A.18.18,0,1,1,288,455.1Z" style="fill:#60A5FA"></path><path d="M274.47,450.32a2.28,2.28,0,0,1,3.35-.6c.19.14.37-.18.18-.32a2.63,2.63,0,0,0-3.84.74c-.13.19.18.37.31.18Z" style="fill:#fff"></path><path d="M276.49,450.93a2.28,2.28,0,0,1,3.35-.6c.19.14.37-.18.18-.32a2.63,2.63,0,0,0-3.84.74c-.14.19.18.37.31.18Z" style="fill:#fff"></path><path d="M278.58,451.54a2.27,2.27,0,0,1,3.35-.6c.18.14.36-.18.18-.32a2.64,2.64,0,0,0-3.85.74c-.13.19.18.37.32.18Z" style="fill:#fff"></path><polygon points="214.01 438.11 215.15 448.42 220.63 448.42 222.27 438.11 214.01 438.11" style="fill:#ffc3bd"></polygon><path d="M219.91,447.1a2.37,2.37,0,0,1,2.36-.85c1.32.44,3,2.6,3,2.6s7.16,2.3,9.09,2.42,3.62,1.21,4.35,5H215.32s-.92-8.45-1.07-9.9,2.16.36,2.16.36Z" style="fill:#263238"></path><path d="M238.05,455.1l-4.22,0-18.46-.19a.18.18,0,1,1,0-.36h1.25a.43.43,0,0,0,0,0,3.85,3.85,0,0,0-1.9-5c-.21-.11,0-.43.18-.31a4.21,4.21,0,0,1,2.08,5.31c.87,0,1.74,0,2.61,0l18.45.19A.18.18,0,1,1,238.05,455.1Z" style="fill:#60A5FA"></path><path d="M224.48,450.32a2.28,2.28,0,0,1,3.35-.6c.19.14.37-.18.18-.32a2.63,2.63,0,0,0-3.84.74c-.13.19.18.37.31.18Z" style="fill:#fff"></path><path d="M226.5,450.93a2.28,2.28,0,0,1,3.35-.6c.19.14.37-.18.18-.32a2.63,2.63,0,0,0-3.84.74c-.14.19.18.37.31.18Z" style="fill:#fff"></path><path d="M228.59,451.54a2.27,2.27,0,0,1,3.34-.6c.19.14.37-.18.19-.32a2.64,2.64,0,0,0-3.85.74c-.13.19.18.37.32.18Z" style="fill:#fff"></path><path d="M261.26,438.4h12.1c1.05-15.58,4-67.24,1.67-92.8,1.69-35.46-3.73-82.54-3.73-82.54H233s2.81,31.51,15.43,82C248.29,385.13,258.06,425.15,261.26,438.4Z" style="fill:#60A5FA"></path><path d="M261.26,438.4h12.1c1.05-15.58,4-67.24,1.67-92.8,1.69-35.46-3.73-82.54-3.73-82.54H233s2.81,31.51,15.43,82C248.29,385.13,258.06,425.15,261.26,438.4Z" style="fill:#fff;opacity:0.2"></path><path d="M246.31,336.6c6.93-28.31.84-65,.84-65l-6,41.94Z" style="opacity:0.2"></path><polygon points="259.82 438.1 260.71 442.7 274.59 442.64 274.6 438.04 259.82 438.1" style="fill:#263238"></polygon><path d="M212.28,438.85h12.11c4.31-16,13-67.59,14.36-93.15,6.86-35.47,10.14-82.64,10.14-82.64H210.54s-3.57,31.87,1.68,82.39C211.2,389.51,212,425.15,212.28,438.85Z" style="fill:#60A5FA"></path><path d="M212.28,438.85h12.11c4.31-16,13-67.59,14.36-93.15,6.86-35.47,10.14-82.64,10.14-82.64H210.54s-3.57,31.87,1.68,82.39C211.2,389.51,212,425.15,212.28,438.85Z" style="fill:#fff;opacity:0.2"></path><polygon points="211.22 438.09 211.2 442.65 225.19 442.65 225.92 438.09 211.22 438.09" style="fill:#263238"></polygon><path d="M276.31,268.85c-26.6,10.22-69.93,2.81-69.93,2.81.29-7.29.56-18.57.71-30.86,0-3.3.07-6.67.09-10.06,0-6.5,0-13.06,0-19.25,0-.5,0-1,0-1.49,0-3-.08-6-.14-8.76,0-.34,0-.68,0-1-.12-5.47-.32-10.31-.57-14.18-.49-7.29,3.48-14.08,10.69-15.29,2.19-.37,4.56-.7,7-1,.58-.07,1.18-.12,1.78-.18a172.14,172.14,0,0,1,21.17-.77l1,0,.54,0,.89,0c3,.12,5.94.35,8.53.69,5.88.76,11.1,5.4,11.2,11.34.09,5.44.62,16.93,1.39,29.89.3,4.9.63,10,1,15.11C273,246,274.81,265.35,276.31,268.85Z" style="fill:#263238"></path><path d="M222,191.45s-.57,28.24,1.31,31.67,38.21,13.8,38.21,13.8c-18.19-2.47-35.78-5.24-45.09-12.17Z" style="opacity:0.2"></path><path d="M262.72,245.22c-21.17,5-45.93-1.42-55.63-4.42,0-3.3.07-6.67.09-10.06C222.09,241.77,262.72,245.22,262.72,245.22Z" style="opacity:0.2"></path><polygon points="244.73 186.12 241.16 225.67 248.3 240.03 253.87 224.33 248.1 186.12 244.73 186.12" style="fill:#60A5FA"></polygon><polygon points="245.58 177.62 241.73 183.33 246.26 188.56 250.78 181.82 245.58 177.62" style="fill:#60A5FA"></polygon><path d="M253.41,130.23a15.93,15.93,0,0,0-12.69.74c-2.56,1.33-4.78,3.37-4.72,6.43.12,7.13,2.11,19.06,2.11,19.06l24.08-10.88s1.75-6-1.07-9.79A15.54,15.54,0,0,0,253.41,130.23Z" style="fill:#263238"></path><path d="M244.42,129.63s-3.26-1.81-6.52,1.56c-2.73,2.81-1.54,12-1.54,12Z" style="fill:#263238"></path><path d="M242,130.38s.94-5.44,10.87-3.81,17.81,9.83,14.19,14.12-14.19-2.75-14.19-2.75Z" style="fill:#263238"></path><path d="M248.63,165.33h0a.3.3,0,0,1,0,.08l-1.51,3.94a13.91,13.91,0,0,0-.31,2.46,14.66,14.66,0,0,0,.09,2c.76,1.32.88,4.14-2.29,3.81-4-.41-10.8-6.7-10.88-8.5,2.45-5.27,4.78-11.86,5-17.13l4,5.44Z" style="fill:#ffc3bd"></path><path d="M245.58,177.62c.95-2.1.94-4.62,1.27-6.88a8.21,8.21,0,0,1,.67-2.52s2.74-.64,4.35.81a30,30,0,0,1-1.16,13.05Z" style="fill:#263238"></path><path d="M230.38,169.23s2.22-4.27,5.26-4.79c.37,5.15,2.47,9.24,9.94,13.18l-4.42,6.55C235,179.14,231.56,174.17,230.38,169.23Z" style="fill:#263238"></path><g style="opacity:0.2"><path d="M248.59,165.42l-1.51,3.94c-2.39-1.41-4.74-4.16-5.05-6.9-.21-2,.85-3.67,1.64-3.69Z"></path></g><path d="M259.66,158c-.34.86-.7,1.7-1.07,2.53-3.35,7.3-12.78,7-18,.76l0,0a14,14,0,0,1-1.28-1.79c-3.17-5.26-1.84-8.9-.36-17.32a11.66,11.66,0,0,1,18.34-7.55C264,139.38,263,149.44,259.66,158Z" style="fill:#ffc3bd"></path><path d="M243.81,145.4s-.05,7,2.7,8,4.8-1.33,7.82,1.58a3.74,3.74,0,0,1,3.81.34c1.82,1.37,1.52,2.19,1.52,2.19s-.7,10.49-10.3,9.27-10.76-10.63-10.1-15.63l1.9-6.21Z" style="fill:#263238"></path><path d="M250.05,155.21a60.85,60.85,0,0,0,5.95,1.71,3.1,3.1,0,0,1-4.26,1.51C249.81,157.6,250.05,155.21,250.05,155.21Z" style="fill:#fff"></path><path d="M258,133.83c-3.75-3.16-11.81-4.59-15.52-1s-3.73,10.06-3.73,10.06a2.77,2.77,0,0,0,.62,1.93,1.64,1.64,0,0,1,.24.32l4.18.68c.33-1.72,1-4.85,2.19-5,2.2-.3.7-2.72,1.18-4.08,1.53-4.42,13.54-1.4,14.92,5.36C262.1,142.13,261.77,137,258,133.83Z" style="fill:#263238"></path><path d="M234.06,146.84a8.18,8.18,0,0,0,2.66,5.61c2.13,1.89,4.44.29,4.89-2.37.41-2.39-.2-6.26-2.84-7.14s-4.81,1.27-4.71,3.9" style="fill:#ffc3bd"></path><path d="M251.27,147.33c-.16.65.06,1.25.48,1.36s.89-.34,1.05-1-.07-1.25-.49-1.35-.89.34-1,1" style="fill:#263238"></path><path d="M258.09,148.94c-.16.65.06,1.25.48,1.36s.89-.34,1.05-1-.07-1.25-.49-1.35-.89.34-1,1" style="fill:#263238"></path><path d="M261,147a.34.34,0,0,1-.24-.24,1.74,1.74,0,0,0-.81-1.13,1.94,1.94,0,0,0-1.39-.12.35.35,0,0,1-.43-.22.36.36,0,0,1,.22-.43,2.74,2.74,0,0,1,1.92.17,2.43,2.43,0,0,1,1.14,1.54.34.34,0,0,1-.23.42A.37.37,0,0,1,261,147Z" style="fill:#263238"></path><path d="M249.88,144.33a.35.35,0,0,1-.15-.07.37.37,0,0,1,0-.52,2.92,2.92,0,0,1,1.84-1,2.62,2.62,0,0,1,1.95.72.37.37,0,0,1,0,.52.35.35,0,0,1-.51,0,1.93,1.93,0,0,0-1.41-.55,2.12,2.12,0,0,0-1.33.72A.38.38,0,0,1,249.88,144.33Z" style="fill:#263238"></path><path d="M255.76,147.51a20.7,20.7,0,0,0,1.25,5.07c.91,2.08-2.68,1.3-2.68,1.3Z" style="fill:#ed847e"></path><path d="M282.7,243.37c-1.34-2.32-6.23-4.44-6.23-4.44a14.71,14.71,0,0,0-4-.11l.19,0s3.2-1.84,2.4-2.28-2.76.27-4.71.68a11.93,11.93,0,0,0-4.15,2.2c-1.43.87-2.26,3.56-1.25,7.12,0,0,4.08,3.88,7,4.42,2.87.7,8.73,1.06,10-.73,2.74-3.76-2.31-6.4-2.31-6.4S284,245.69,282.7,243.37Z" style="fill:#ffc3bd"></path><path d="M264.6,237.71l-1.14,7.83c-8.31-.45-16.51-1.2-24.76-2.3-4.13-.54-8.25-1.2-12.42-2-2.09-.39-4.18-.84-6.32-1.37a54.41,54.41,0,0,1-6.7-2c-.61-.24-1.25-.51-1.95-.85a14.77,14.77,0,0,1-2.41-1.5,10.53,10.53,0,0,1-1.7-1.62,9.17,9.17,0,0,1-1-1.53,9.85,9.85,0,0,1-.5-1.12l-.21-.66-.05-.22a19.27,19.27,0,0,1-.46-2.63c-.28-2.63-.33-4.72-.38-6.9,0-4.29,0-8.44.19-12.6.28-8.31.88-16.49,1.72-24.74l15.94,1.39c-.23,4-.6,8.09-.86,12.13l-.94,12.11c-.3,4-.63,8-.8,11.94-.07,1.37-.13,2.78-.14,4,1.22.57,2.69,1.13,4.16,1.64,1.8.62,3.67,1.2,5.56,1.78,3.78,1.15,7.67,2.19,11.57,3.23C248.78,233.73,256.72,235.73,264.6,237.71Z" style="fill:#263238"></path><path d="M334.83,185.54c-5.37,5.07-10.95,9.83-16.72,14.42-2.87,2.32-5.83,4.53-8.88,6.76-1.55,1.08-3.11,2.16-4.88,3.25-.45.27-.91.54-1.42.82a16.27,16.27,0,0,1-1.86.91,11.18,11.18,0,0,1-1.81.56l-.41.07-.54.06a8,8,0,0,1-1.72,0l-.29,0-.41-.08a7,7,0,0,1-.78-.23l-.14,0-.28-.1c-.34-.13-.79-.29-1.05-.41l-.86-.38c-2.13-1-3.79-1.93-5.49-2.9s-3.3-1.94-4.88-3c-3.16-2-6.26-4-9.28-6.17l-.48-.33-2.79-2c-4.91-3.5-9.68-7.11-14.36-10.95l9.78-12.66c5.83,4.16,11.6,8.55,17.31,12.87,2.87,2.13,5.7,4.32,8.55,6.39,1.43,1,2.83,2.08,4.22,3.06,1,.7,2,1.41,3,2,1.27-.59,2.62-1.29,4-2,3.13-1.59,6.27-3.35,9.45-5.06,6.34-3.45,12.75-7,19.27-10.24Z" style="fill:#263238"></path><path d="M272.65,198.7l-2.79-2L269,183.05Z" style="opacity:0.2"></path><path d="M334.19,185.66a4,4,0,0,0,2.87-1.54c1.66-2.71,4.28-3.21,5.33-3.79s-.15-2.36-2.81-1.79c0,0,1.14-3.71,2.06-4.61s5.76-2.82,5.67-3.51-3.84.43-6,1.42-6.62,6.48-10.62,8.45C330.66,180.29,329.08,184.45,334.19,185.66Z" style="fill:#ffc3bd"></path></g></svg>
